<svg xmlns="http://www.w3.org/2000/svg" clip-rule="evenodd" fill-rule="evenodd" height="1.707in" viewBox="0 0 1707 1707" width="1.707in"><g id="Layer_x0020_1"><path d="m20 194v777h1667v-777c0-36-30-65-66-65h-1536c-36 0-65 29-65 65z" fill="#eceaec"></path><path d="m1035 1450c-11 0-20-9-20-20h-323c0 11-9 20-20 20-12 0-20-9-20-20v-190c0-11 8-20 20-20 9 0 271 10 343 20 0-11 9-20 20-20s20 9 20 20v190c0 11-9 20-20 20z" fill="#3c58a0"></path><path d="m1603 1260h-1499c-58 0-104-47-104-104v-58-895c0-57 46-104 104-104h1499c57 0 104 47 104 104v953c0 57-47 104-104 104zm-1563-299h1627v-758c0-35-29-64-64-64h-1499c-35 0-64 29-64 64z" fill="#1c2e7a"></path><path d="m1256 1607h-805c-11 0-20-9-20-20v-78c0-54 44-98 98-98h649c54 0 98 44 98 98v78c0 11-9 20-20 20z" fill="#1c2e7a"></path><path d="m1267 1177c-37 0-67-30-67-67s30-67 67-67 67 30 67 67-30 67-67 67zm215 0c-37 0-67-30-67-67s30-67 67-67 67 30 67 67-30 67-67 67z" fill="#ffb500"></path><path d="m439 831h-65c-25 0-44-20-44-44v-26c-7-2-13-5-20-8l-18 19c-16 16-45 16-62 0l-46-46c-17-18-17-45 0-63l18-18c-2-6-5-12-7-19h-26c-24 0-44-20-44-44v-65c0-24 20-44 44-44h26c2-6 5-13 7-19l-18-18c-17-17-17-45 0-62l46-46c17-17 46-17 62 0l18 18c7-3 13-5 20-8v-26c0-24 19-44 44-44h65c24 0 43 20 43 44v26c7 3 13 5 20 8l18-18c16-17 45-17 62 0l46 46c17 17 17 45 0 62l-18 18c3 6 5 13 8 19h25c25 0 44 20 44 44v65c0 24-19 44-44 44h-25c-3 7-5 13-8 19l18 18c17 18 17 45 0 63l-46 46c-17 16-46 16-62 0l-18-19c-7 3-13 6-20 8v26c0 24-19 44-43 44z" fill="#ff4155"></path><path d="m406 688c-76 0-138-62-138-138 0-77 62-139 138-139s139 62 139 139c0 76-63 138-139 138z" fill="#e6e6e6"></path><g fill="#1c2e7a"><path d="m1024 755c-5 0-10-2-14-6l-185-185c-8-8-8-20 0-28l185-185c8-8 20-8 28 0 8 7 8 20 0 28l-171 171 171 171c8 8 8 20 0 28-3 4-9 6-14 6z"></path><path d="m1376 755c-5 0-10-2-14-6-7-8-7-20 0-28l171-171-171-171c-7-8-7-21 0-29 8-7 21-7 29 0l185 186c8 7 8 20 0 28l-185 185c-4 4-9 6-15 6z"></path><path d="m1121 866c-2 0-3 0-5-1-11-2-17-13-14-24l158-593c3-10 14-16 25-14 11 3 17 14 14 25l-159 592c-2 9-10 15-19 15z"></path></g></g></svg>