<svg xmlns="http://www.w3.org/2000/svg" id="Layer_1" viewBox="0 0 48 48" data-name="Layer 1"><path d="m3 13h38v25c0 2.761-2.239 5-5 5h-28c-2.761 0-5-2.239-5-5z" fill="#eff3f9"></path><path d="m41 31.52v6.48c0 .71-.15 1.39-.41 2-.78 1.76-2.54 3-4.59 3h-28c-2.76 0-5-2.24-5-5v-25h3v25c0 1.1.9 2 2 2h19.06c-.04-.33-.06-.66-.06-1 0-4.97 4.03-9 9-9 1.85 0 3.57.56 5 1.52z" fill="#cfe0f3"></path><path d="m8 5h28c2.761 0 5 2.239 5 5v4h-38v-4c0-2.761 2.239-5 5-5z" fill="#0ca0f2"></path><path d="m8.027 5h-.027c-2.761 0-5 2.239-5 5v4h3v-5c0-1.643.804-3.089 2.027-4z" fill="#0588e2"></path><rect fill="#cfe0f3" height="7" rx="2" width="4" x="11" y="2"></rect><rect fill="#cfe0f3" height="7" rx="2" width="4" x="29" y="2"></rect><path d="m13 2v3c0 1.105.895 2 2 2v-3c0-1.105-.895-2-2-2z" fill="#eff3f9"></path><path d="m31 2v3c0 1.105.895 2 2 2v-3c0-1.105-.895-2-2-2z" fill="#eff3f9"></path><g fill="#b6cae5"><rect height="6" rx="1.5" width="6" x="9" y="19"></rect><rect height="6" rx="1.5" width="6" x="19" y="19"></rect><rect height="6" rx="1.5" width="6" x="29" y="19"></rect><rect height="6" rx="1.5" width="6" x="9" y="30"></rect><rect height="6" rx="1.5" width="6" x="19" y="30"></rect><rect height="6" rx="1.5" width="6" x="29" y="30"></rect></g><path d="m29 33.349v1.151c0 .828.672 1.5 1.5 1.5h3c.828 0 1.5-.672 1.5-1.5v-3c0-.574-.326-1.067-.8-1.319-2.087.424-3.909 1.572-5.2 3.169z" fill="#9eb6d8"></path><circle cx="37" cy="38" fill="#00b277" r="8"></circle><circle cx="37" cy="38" fill="#00d18d" r="6"></circle><path d="m36 41c-.256 0-.512-.098-.707-.293l-2-2c-.391-.391-.391-1.023 0-1.414s1.023-.391 1.414 0l1.293 1.293 3.293-3.293c.391-.391 1.023-.391 1.414 0s.391 1.023 0 1.414l-4 4c-.195.195-.451.293-.707.293z" fill="#eff3f9"></path></svg>