<svg xmlns="http://www.w3.org/2000/svg" id="Layer_1" height="512" viewBox="0 0 512 512" width="512" data-name="Layer 1"><path d="m66.037 11.002h344.468v448.61h-344.468z" fill="#fcdb35"></path><path d="m66.037 11.002h11.641v448.61h-11.641z" fill="#fdc72e"></path><path d="m24.648 52.391h275.033l69.436 69.436v379.175h-344.469z" fill="#e9e9ff" fill-rule="evenodd"></path><path d="m299.681 52.391 69.436 69.436h-69.436z" fill="#bcbcf5" fill-rule="evenodd"></path><path d="m325.895 319.261-10.359 75.089 59.849-46.517 108.162-187.343c7.858-13.61 3.152-31.174-10.458-39.031-13.61-7.858-31.173-3.152-39.031 10.458l-108.162 187.343z" fill="#2a92fa" fill-rule="evenodd"></path><path d="m315.535 394.35 59.849-46.517 108.162-187.343c7.858-13.61 3.152-31.174-10.458-39.031l-157.553 272.89z" fill="#4eb1fc" fill-rule="evenodd"></path><path d="m417.027 161.414 49.489 28.573 17.03-29.497c7.857-13.609 3.151-31.173-10.459-39.031-13.591-7.847-31.184-3.133-39.031 10.458l-17.03 29.497z" fill="#323e66" fill-rule="evenodd"></path><path d="m441.772 175.701 24.744 14.286 17.03-29.497c7.857-13.609 3.151-31.173-10.458-39.03z" fill="#3d4a75" fill-rule="evenodd"></path><path d="m435.896 136.95h23.504v57.145h-23.504z" fill="#e6b17c" transform="matrix(.5 -.866 .866 .5 80.477 470.436)"></path><path d="m448.268 158.38h23.504v28.572h-23.504z" fill="#f9c795" transform="matrix(.5 -.866 .866 .5 80.477 484.723)"></path><g fill-rule="evenodd"><path d="m325.895 319.261-10.36 75.089 59.849-46.516z" fill="#e6b17c"></path><path d="m315.535 394.35 59.849-46.516-24.745-14.286z" fill="#f9c795"></path><path d="m319.96 362.277-4.425 32.073 25.563-19.869z" fill="#3d4a75"></path><path d="m236.882 373.921c0 7.743-6.336 14.079-14.079 14.079h-51.841c-7.743 0-14.079-6.336-14.079-14.079v-7.471c0-38.748-40-49.632-40-101.705 0-47.777 39.999-71.666 79.999-71.666s80 23.889 80 71.666c0 52.073-40 62.957-40 101.705z" fill="#f9ac00"></path><path d="m236.882 373.921c0 7.744-6.336 14.079-14.079 14.079h-33.225c-7.743 0-14.079-6.336-14.079-14.079v-7.471c0-38.748-40-49.632-40-101.705 0-44.064 34.023-67.808 70.691-71.232 36.668 3.425 70.691 27.169 70.691 71.232 0 52.073-40 62.957-40 101.705v7.471z" fill="#fdc72e"></path><path d="m175.487 375.945h42.791v19.883c0 5.925-4.85 10.775-10.775 10.775h-21.241c-5.926 0-10.775-4.849-10.775-10.775z" fill="#5d689e"></path><path d="m188.398 375.945h29.88v19.883c0 5.925-4.85 10.775-10.775 10.775h-8.33c-5.926 0-10.775-4.849-10.775-10.775z" fill="#7986bf"></path><path d="m236.882 373.921c0 7.743-6.336 14.079-14.079 14.079h-51.842c-7.744 0-14.079-6.336-14.079-14.079v-7.471h79.999v7.471z" fill="#7986bf"></path><path d="m236.882 373.921c0 7.737-6.325 14.069-14.061 14.079h-33.243c-7.743 0-14.079-6.336-14.079-14.079v-7.471s61.383 0 61.383 0z" fill="#909cd1"></path></g><path d="m24.648 52.391h11.641v448.61h-11.641z" fill="#d1d1f0"></path><path d="m470.56 125.791c-5.395-3.129-11.771-3.963-17.853-2.32-6.13 1.629-11.182 5.518-14.321 10.952l-2.796 4.806 40.855 23.572 2.747-4.811c6.523-11.261 2.649-25.7-8.632-32.199zm-65.034 179.87-25.847 44.671c-.294.559-.736 1.05-1.226 1.447l-4.365 3.369v99.465h31.438zm-41.395 190.342v-133.081l-45.564 35.377c-.883.692-1.962 1.05-3.041 1.05-.883 0-1.717-.221-2.501-.667-1.766-1.02-2.747-3.001-2.452-5.012l10.348-75.089c.098-.638.294-1.26.638-1.82l42.572-73.701v-116.229h-64.446c-2.796 0-5.003-2.241-5.003-5.003v-64.436h-265.043v438.611zm-293.097-448.612v-31.389h334.491v155.367l-31.438 54.372v-103.913c0-1.329-.491-2.599-1.423-3.536l-69.449-69.444c-.932-.927-2.207-1.457-3.531-1.457zm393.641 135.769-40.806-23.581 6.719-11.688 40.855 23.572zm-5.003 8.662-86.124 149.182-16.087-9.284 86.124-149.187zm-93.236 156.627-25.749 20.021-15.351-8.838 4.463-32.321 36.637 21.139zm-44.288 34.41 1.766-12.536 8.239 4.767zm10.545-65.427 86.173-149.192 16.087 9.289-86.173 149.192zm-28.005-200.602v-52.371l52.332 52.371zm183.186 46.162-72.392 125.346v171.272c0 2.761-2.207 5.003-5.003 5.003h-36.392v36.387c0 2.761-2.207 4.998-4.954 4.998h-344.497c-2.747 0-5.003-2.237-5.003-4.998v-448.611c0-2.761 2.256-4.998 5.003-4.998h36.392v-36.392c0-2.761 2.207-4.998 5.003-4.998h344.448c2.796 0 5.003 2.237 5.003 4.998v143.052l14.223-24.631c4.463-7.739 11.722-13.291 20.403-15.611 8.681-2.33 17.754-1.148 25.455 3.32 16.038 9.25 21.58 29.83 12.31 45.863zm-277.551 136.848c-2.207 5.532-4.905 9.471-7.847 11.511 1.913-18.652 7.651-24.798 9.466-25.612.785 1.251 1.618 5.944-1.619 14.101zm61.356-35.019c0 26.288-10.79 41.34-21.188 55.897-8.387 11.693-17.019 23.753-18.49 40.585h-30.114v-38.805c5.591-1.319 12.507-5.895 17.706-18.966 4.365-10.952 4.022-20.364-.834-25.151-2.845-2.781-6.817-3.482-10.594-1.883-6.621 2.771-13.586 13.321-15.695 34.573-5.346-3.59-10.79-12.212-12.752-24.881-.392-2.732-2.992-4.6-5.689-4.178-2.746.432-4.61 2.992-4.169 5.709 2.648 17.132 11.428 30.438 22.021 34.18v39.403h-30.163c-1.471-16.832-10.055-28.893-18.441-40.585-10.447-14.557-21.237-29.609-21.237-55.897 0-45.701 38.795-66.511 74.844-66.511s74.795 20.81 74.795 66.511zm-39.923 108.94c0 4.988-4.022 9.049-9.024 9.049h-51.743c-4.954 0-9.024-4.061-9.024-9.049v-2.462h69.792v2.462zm-18.539 21.86c0 3.168-2.599 5.748-5.738 5.748h-21.188c-3.188 0-5.787-2.58-5.787-5.748v-2.81h32.714v2.81zm68.468-130.8c0 29.501-12.261 46.618-23.1 61.719-9.024 12.59-16.823 23.459-16.823 39.761v7.46c0 10.339-8.239 18.76-18.539 19.02v2.84c0 8.681-7.062 15.749-15.744 15.749h-21.188c-8.681 0-15.793-7.067-15.793-15.749v-2.84c-10.251-.26-18.54-8.681-18.54-19.02v-7.46c0-16.303-7.798-27.171-16.822-39.761-10.839-15.101-23.101-32.218-23.101-61.719 0-23.669 9.319-43.572 26.828-57.54 15.351-12.232 35.951-18.971 58.021-18.971s42.621 6.739 57.972 18.971c17.558 13.968 26.828 33.871 26.828 57.54zm-84.8-89.719c-2.796 0-5.003-2.241-5.003-5.003v-23.081c0-2.756 2.207-4.998 5.003-4.998 2.746 0 5.002 2.241 5.002 4.998v23.081c0 2.761-2.256 5.003-5.002 5.003zm-101.77 82.46c2.747.28 4.709 2.737 4.464 5.478-.246 2.58-2.453 4.497-4.954 4.497-.196 0-.343-.01-.539-.024l-22.953-2.325c-2.747-.28-4.758-2.727-4.463-5.478.245-2.752 2.698-4.757 5.444-4.468l23.002 2.32zm182.45-81.401c1.864-2.05 5.003-2.212 7.062-.358 2.06 1.849 2.207 5.017.343 7.058l-15.449 17.132c-.981 1.089-2.354 1.648-3.728 1.648-1.177 0-2.403-.427-3.335-1.3-2.06-1.849-2.207-5.012-.393-7.062l15.499-17.117zm49.536 83.55c.245 2.751-1.717 5.199-4.463 5.478l-23.002 2.325c-.147.014-.344.024-.491.024-2.55 0-4.708-1.918-4.954-4.497-.294-2.742 1.717-5.199 4.463-5.478l22.953-2.32c2.747-.289 5.199 1.717 5.493 4.468zm-202.853-59.718-15.498-17.132c-1.864-2.04-1.668-5.209.343-7.058 2.06-1.854 5.248-1.692 7.063.358l15.498 17.117c1.864 2.05 1.668 5.213-.343 7.062-.981.873-2.158 1.3-3.384 1.3-1.324 0-2.697-.559-3.678-1.648z" fill-rule="evenodd"></path></svg>