<svg height="512" viewBox="0 0 64 64" width="512" xmlns="http://www.w3.org/2000/svg"><g id="Icon"><rect fill="#f5f5f5" height="41" rx="2" width="54" x="7" y="8"/><path d="m15 32a12.00134 12.00134 0 0 0 -10.56635 17.68958l10.56635-5.68958z" fill="#fbc02d"/><path d="m15 32v12h12a12 12 0 0 0 -12-12z" fill="#7cb342"/><path d="m4.43365 49.68958a12.00057 12.00057 0 0 0 22.56635-5.68958h-12z" fill="#f44336"/><path d="m37 32h2a1 1 0 0 1 1 1v12a0 0 0 0 1 0 0h-4a0 0 0 0 1 0 0v-12a1 1 0 0 1 1-1z" fill="#f44336"/><path d="m44 29h2a1 1 0 0 1 1 1v15a0 0 0 0 1 0 0h-4a0 0 0 0 1 0 0v-15a1 1 0 0 1 1-1z" fill="#fbc02d"/><path d="m51 35h2a1 1 0 0 1 1 1v9a0 0 0 0 1 0 0h-4a0 0 0 0 1 0 0v-9a1 1 0 0 1 1-1z" fill="#7cb342"/><circle cx="6.5" cy="26.5" fill="#f44336" r="2.5"/><circle cx="16.5" cy="17.5" fill="#fbc02d" r="2.5"/><circle cx="36.5" cy="16.5" fill="#1976d2" r="2.5"/><circle cx="25.5" cy="25.5" fill="#7cb342" r="2.5"/></g><g id="Line"><path d="m57 44h-2v-8a2 2 0 0 0 -2-2h-2a2 2 0 0 0 -2 2v8h-1v-14a2 2 0 0 0 -2-2h-2a2 2 0 0 0 -2 2v14h-1v-11a2 2 0 0 0 -2-2h-2a2 2 0 0 0 -2 2v11a1.001 1.001 0 0 1 -1-1v-16a1 1 0 0 0 -2 0v16a3.00328 3.00328 0 0 0 3 3h22a1 1 0 0 0 0-2zm-20 0-.00146-11h2.00146v11zm7 0-.00146-14h2.00146v14zm7 0-.00146-8h2.00146v8zm-5-30a.99974.99974 0 0 1 1-1h9a1 1 0 0 1 0 2h-9a.99974.99974 0 0 1 -1-1zm-3 0a1 1 0 1 1 1 1 1 1 0 0 1 -1-1zm3 4a.99974.99974 0 0 1 1-1h9a1 1 0 0 1 0 2h-9a.99974.99974 0 0 1 -1-1zm0 4a.99974.99974 0 0 1 1-1h9a1 1 0 0 1 0 2h-9a.99974.99974 0 0 1 -1-1zm-3-4a1 1 0 1 1 1 1 1 1 0 0 1 -1-1zm0 4a1 1 0 1 1 1 1 1 1 0 0 1 -1-1zm16-15h-50a3.00328 3.00328 0 0 0 -3 3v13.05054a3.48313 3.48313 0 0 0 0 6.89892v4.69147a12.98893 12.98893 0 1 0 20.521 15.35907h32.479a3.00328 3.00328 0 0 0 3-3v-37a3.00328 3.00328 0 0 0 -3-3zm-54 19.5a1.5 1.5 0 1 1 1.5 1.5 1.50164 1.50164 0 0 1 -1.5-1.5zm9 6.55066v10.35162l-9.11768 4.90955a10.99121 10.99121 0 0 1 9.11768-15.26117zm2 0a11.01139 11.01139 0 0 1 9.94934 9.94934h-9.94934zm-1 21.94934a10.99542 10.99542 0 0 1 -9.16449-4.92914l9.41736-5.07086h10.69647a11.01125 11.01125 0 0 1 -10.94934 10zm45-8a1.001 1.001 0 0 1 -1 1h-31.63617a12.98034 12.98034 0 0 0 -19.36383-14.937v-3.41407a3.49523 3.49523 0 0 0 2-3.14893 3.45816 3.45816 0 0 0 -.35724-1.51135l5.06018-4.49811a3.50541 3.50541 0 0 0 3.14026.2384l4.40674 3.47931a3.49788 3.49788 0 1 0 6.46893-.0708l5.78064-4.77533a3.48861 3.48861 0 1 0 -1.24731-1.56274l-5.80481 4.79516a3.50163 3.50163 0 0 0 -3.95331.04779l-4.0722-3.215a3.4987 3.4987 0 1 0 -6.06318-.41724l-5.0639 4.5012c-.09564-.05774-.19348-.11169-.2948-.16022v-13.35107a1.001 1.001 0 0 1 1-1h50a1.001 1.001 0 0 1 1 1zm-42.43933-28.43933a1.5 1.5 0 1 1 0-2.12134 1.50174 1.50174 0 0 1 0 2.12134zm9 8a1.5 1.5 0 1 1 0-2.12134 1.50174 1.50174 0 0 1 0 2.12134zm8.87866-11.12134a1.5 1.5 0 1 1 0 2.12134 1.50163 1.50163 0 0 1 0-2.12134z"/></g></svg>