<svg id="Layer_1" enable-background="new 0 0 51 51" height="512" viewBox="0 0 51 51" width="512" xmlns="http://www.w3.org/2000/svg"><g id="_x32_4"><g><g><g><path d="m49.4952965 34.5522881c.0018311-.1039429-.0647583-.2081299-.2015381-.2875977l-26.4207134-15.3540668c-.2727051-.1585083-.7107544-.1575928-.9837646 0l-20.182923 11.6525878c-.2525635.145874-.2618408.3703613-.0474243.5290527-.098877-.0720215-.1589355-.1566772-.1589355-.2426758l.0046997 2.2740498c0 .1033325.0681763.2044067.2020264.2842407l26.4220581 15.3547363c.2702026.1574097.7095337.1574097.9819946 0l20.1824322-11.6522827c.1362915-.079834.2067871-.1832886.2067871-.2866211zm-.1430054.2286987c.0324097-.0259399.0708618-.050354.0912476-.0791016-.0205689.0291748-.0587159.0532227-.0912476.0791016z" fill="#aa6256"/><g><g><g><g enable-background="new"><g><g><path d="m17.5704842 24.091692-7.5734978 4.4012375c-.3213434.1867428-1.8210621-.5181084-2.4813542-.8275204-.0699949-.0341148-.1331453-.0626926-.1839294-.0872574l7.5734963-4.4012356c.0507841.0245647.1139355.0531425.1839304.0872574.6602916.309412 2.1600103 1.0142632 2.4813547.8275185z" fill="#38425d"/></g></g><g><g><path d="m17.6287632 24.1814938-7.5734968 4.4012356c.0216217-.0125637.0389004-.0285873.0513878-.0483685l7.5734968-4.4012356c-.0124874.0197811-.0297661.0358048-.0513878.0483685z" fill="#38425d"/></g></g><g><g><path d="m10.0395336 28.4529381 7.5734959-4.4012356.0671215.0814228-7.5734968 4.4012356z" fill="#38425d"/></g></g></g><g><g><path d="m1.5000025 30.8495808.004703 2.2740688c0 .1033554.0681376.2044144.2020326.2842522l26.4220676 15.3547554c.2701702.157383.7094803.157383.9820023 0l20.1824322-11.6523285c.1362724-.0798378.2067642-.1832466.2067642-.286602l-.0047035-2.2717743c0 .101059-.0704918.2067642-.2044144.2819557l-20.1824308 11.6522713c-.2748737.1574402-.711832.1574402-.9820023 0l-26.4220668-15.3547001c-.1362466-.0775433-.2043841-.1808968-.2043841-.2818985z" fill="#aa6256"/></g></g><g><g><path d="m1.7063642 30.5632515c-.2729752.1576023-.2744188.4104767-.0016817.5689735l26.4206963 15.3540306c.2712021.1576042.7092991.1584892.982275.000885l20.1829147-11.6526108c.272995-.1576118.2743874-.4122353.0031853-.5698395l-26.4206955-15.3540324c-.2727375-.1584988-.7107849-.1576309-.9837799-.0000172z" fill="#dba660"/></g></g><g><g><g><path d="m3.5400314 30.8473606 25.0825596 14.5763912 18.8344975-10.8741035-25.0825615-14.5763893z" fill="#fff"/></g></g></g></g></g></g><g><g><g><path d="m33.9899521 27.8757267c.1271439.0720558-6.3161449-3.6427498-6.4468575-3.7180767-.1116562.0648785-16.88694 9.8121109-16.7848854 9.7527313.3549948.2045097 12.7965307 7.3871002 12.6958151 7.3289795.1029758-.0599136 2.4100094-1.4022179 2.2671165-1.3190804.1277103-.0742493 6.3533382-3.6937599 6.0264015-3.5037231.1001034-.0579948 2.2119923-1.2815056 2.0775204-1.2036018l.1895943-.1071739c.1008492-.0586357 6.3243332-3.6772499 6.2242546-3.619154-.1000185-.0577965-6.3490877-3.6689129-6.2489595-3.6109009zm3.7839928 2.4072514-1.8878708 1.0964737-1.8878708-1.0964737 1.8796196-1.0964241zm-10.3874894 1.2119026-1.8878708 1.0882225-1.8879223-1.0882225 1.8796692-1.0964737zm-1.7065258-1.2036515 1.8878708-1.0964737 1.8879204 1.0882225-1.8796692 1.0964737zm-.3709926 2.4072495-1.8796196 1.0964737-1.8961716-1.0964737 1.8796673-1.0964222zm-2.0774689 1.2036514-1.8796673 1.0964737-1.8961239-1.0964737 1.8878708-1.0882225zm.1895981.1071778 1.896122 1.0964737-1.8878708 1.0964203-1.8879204-1.0964203zm.1978493-.1071778 1.8796692-1.0964737 1.8878708 1.0964737-1.8796692 1.0882225zm2.0692653-1.2036514 1.8878708-1.0964222 1.8879223 1.0964222-1.8796692 1.0882225zm2.0775185-1.203598 1.8796196-1.0964737 1.896122 1.0882206-1.8878708 1.0964756zm2.0774689-1.2119026 1.8796673-1.0882225 1.8878708 1.0882225-1.8796177 1.0964737zm-.1978493-.1071778-1.8878708-1.0964222 1.8796177-1.0882225 1.8961239 1.0882225zm-2.0857201-1.2035999-1.8879223-1.0964737 1.8796692-1.0882206 1.8878708 1.0882206zm-.1896477.1071777-1.8878708 1.0964222-1.8879204-1.0882206 1.8879204-1.0964241zm-2.0692672 1.2036-1.8878708 1.0964737-1.8878689-1.0882225 1.8796177-1.0964737zm-2.077467 1.2119026-1.8796692 1.0882225-1.896122-1.0882225 1.8796177-1.0882225zm-2.0775185 1.203598-1.8796692 1.0964737-1.896122-1.0964737 1.8879204-1.0881691zm-2.0692653 1.2036514-1.8878708 1.0964737-1.8879213-1.0882225 1.8796682-1.0964737zm.1895962.115429 1.8961735 1.0882225-1.8879204 1.0964203-1.8878708-1.0881691zm2.0857715 1.2036018 1.896122 1.0882187-1.8878708 1.0964737-1.896122-1.0964737zm2.0857697 1.2036476 1.8878708 1.0882225-1.8796692 1.0964737-1.896122-1.0964737zm.1895961-.1154289 1.8796196-1.0964241 1.8961735 1.0964241-1.8879223 1.0964737zm2.0692673-1.203598 1.8878708-1.0964737 1.8878708 1.0964737-1.8796196 1.0882187zm2.077467-1.2036515 1.8796692-1.0964737 1.896122 1.0882225-1.8796177 1.0964737zm2.0692673-1.2036514 1.8879204-1.0964222 1.8961239 1.0882206-1.8879223 1.0964241zm2.0775165-1.2118511 1.8796196-1.0882206 1.8961716 1.0882206-1.8796692 1.0964756zm1.8796196-3.5037232 1.8879204 1.0964737-1.8796692 1.0964222-1.896122-1.0964222zm-2.08572-1.2036495 1.896122 1.0964718-1.8878708 1.0964737-1.896122-1.0964737zm-.1978493-.1071777-1.8796692 1.0964737-1.8878708-1.0964737 1.8796196-1.0964222zm-3.9736405-2.2918205 1.896122 1.0882206-1.8878708 1.0964241-1.8879204-1.0964241zm-2.0692672 1.2035999 1.8878708 1.0882206-1.8796177 1.0964737-1.8961239-1.0882206zm-2.0775185 1.2036495 1.8879223 1.0882206-1.8796692 1.0964737-1.8878708-1.0882206zm-2.0692654 1.2036495 1.8879204 1.0964241-1.8879204 1.0882206-1.8878708-1.0882206zm-2.0774669 1.2118531 1.8878708 1.0882206-1.8796196 1.0964737-1.8879204-1.0964737zm-2.0775185 1.2036495 1.8878708 1.0882225-1.8796196 1.0964241-1.8878698-1.0881729zm-2.0692663 1.2036514 1.8879213 1.0881691-1.8879213 1.0964737-1.8878708-1.0882187zm-3.9571371 2.3000717 1.8796692-1.0964737 1.8878708 1.0964737-1.8796692 1.0882225zm2.0775184 1.2036514 1.8878708-1.0964737 1.8878708 1.0964737-1.8796186 1.0881691zm2.0857201 1.2035981 1.8796692-1.0964699 1.896122 1.0964699-1.8796692 1.0882225zm2.0857697 1.2036514 1.8796196-1.0964737 1.8961735 1.0964737-1.8879223 1.0882225zm2.08572 1.1954002 1.8796692-1.0882225 1.8878708 1.0882225-1.8796177 1.0964203zm3.9736405 2.3000718-1.8878689-1.0882225 1.8796177-1.0964737 1.8879204 1.0882225zm2.0692672-1.2036515-1.8878708-1.0964203 1.8878708-1.0882225 1.8878708 1.0882225zm2.0775185-1.203598-1.8879223-1.0964737 1.8796692-1.0882225 1.8878708 1.0882225zm2.077467-1.2119026-1.8878708-1.0882225 1.8796692-1.0964241 1.8878708 1.0964241zm2.0692653-1.2036019-1.8878689-1.0882187 1.8878689-1.0964737 1.8879223 1.0882187zm2.0775204-1.2036476-1.8878727-1.0882225 1.8796177-1.0964737 1.8878708 1.0882225zm2.0775185-1.2036514-1.8961754-1.0964241 1.8879204-1.0882206 1.8878708 1.0882206zm2.0692138-1.211853-1.8878708-1.0882206 1.8796692-1.0964737 1.896122 1.0964737z" fill="#dedffb"/></g></g></g></g><g><g enable-background="new"><g><g><path d="m7.7642879 28.8817825-.0033144.8984795-1.8791552-1.0849323.0033145-.8984776z" fill="#b0b8cf"/></g></g></g></g><g><g><path d="m8.1300631 30.8584995c-.0258789 0-.0517578-.0068359-.0751953-.0200195l-2.1723628-1.2539063c-.0463867-.0268555-.074707-.0761719-.074707-.1298828 0-.0532227.0283203-.1030273.074707-.1298828l.8984375-.5219727c.0703125-.0419922.1630859-.0170898.2050781.0546875.0415039.0712891.0170898.1630859-.0546875.2050781l-.6743164.3916016 1.8725581 1.0810547 15.4277353-8.965332-1.8725586-1.0810547-1.3198242.7670898c-.0708008.0400391-.1630859.0166016-.2050781-.0546875-.0415039-.0712891-.0170898-.1630859.0546875-.2050781l1.3945313-.8105469c.0458984-.0263672.1035156-.0263672.1503906 0l2.1723633 1.2539063c.0458984.0268555.074707.0761719.074707.1298828 0 .0532227-.0283203.1030273-.074707.1298828l-15.7265635 9.1391602c-.0229492.0131836-.0493164.0200195-.0751953.0200195z" fill="#4c5c75"/></g></g><g><g><path d="m21.8569126 20.6920433-14.0926247 8.1897392-1.8791551-1.0849304 14.0926256-8.1897392z" fill="#c9cee2"/></g></g><g><g><path d="m21.8569126 20.6920433-.0033131.8984795-14.092626 8.1897392.0033144-.8984795z" fill="#9ea9c9"/></g></g><g><g><g><g><path d="m38.8829918 34.1965752c0-1.3059082-.8518677-2.6062641-2.5613403-3.6038837-3.4301758-1.9896851-9.029356-1.9896851-12.4931011 0-1.743042 1.0088501-2.6118164 2.3371601-2.6062012 3.6542988l.0056152 1.9560547c0 1.3307228.8870602 2.4436684 1.9896851 3.2171631.1793213.1289673.3699341.2522583.5716553.3699951 3.435791 2.0008545 9.0405254 2.0008545 12.4987164 0 3.549549-2.049656 2.3869551-4.4800645 2.5949706-5.593628zm-14.3930645 3.2283325c-1.2554932-.7398071-1.9953003-1.670166-2.1970825-2.6342773.0056152-.0167847.0056152-.0335693.0112305-.050354 1.1707687-5.1339245 14.1735249-5.3083019 15.5084209.0167847-.7771683 3.7572249-8.7437782 5.3241385-13.3225689 2.6678466z" fill="#111d33"/><g><g><g><path d="m36.2879982 39.7902107c-3.4581413 2.0008812-9.0629292 2.0008812-12.4986668 0-.2017632-.1177444-.3923416-.2410355-.5716648-.3700027-1.1023083-.7732506-1.9897251-1.8862801-1.9897251-3.2171402l-.0055771-1.9560661c.0055771.1906128.3979187.3531723 1.0592785.4876823.0056114 0 .0112209 0 .0224419.0056114-.0056114.0167618-.0056114.0335922-.0112209.050354.2017651.964077.9416008 1.8944893 2.1970673 2.6342888 4.4819679 2.6000633 12.5322399 1.1522598 13.322588-2.667881-.0056114-.0223732-.011219-.0392036-.0168304-.0616455.011219 0 .0224419 0 .0280495-.0056114.6557503-.1345062 1.0424843-.3026772 1.0592804-.4932213-.2014963 1.0786209.9532736 3.5447578-2.5950205 5.5936317z" fill="#111d33"/></g></g></g><g><g><g><path d="m36.3216591 30.5927048c-3.4301605-1.9896927-9.029335-1.9896927-12.4930897 0-1.7430801 1.0088539-2.6118145 2.3371849-2.606205 3.6542969.0055771 1.3003502.8575153 2.595089 2.5557823 3.5870781 3.4357357 1.9953346 9.0405216 1.9953346 12.4986668 0 3.448349-1.9910699 3.4871025-5.2324792.0448456-7.241375zm-11.831728 6.8322334c-1.2554665-.7397995-1.9953022-1.6702118-2.1970673-2.6342888.0056095-.0167618.0056095-.0335922.0112209-.050354 1.1690311-5.1266136 14.1711807-5.3159504 15.5084343.0167618-.777317 3.7571678-8.7437991 5.3241119-13.3225879 2.667881z" fill="#4c5c75"/></g></g></g><g><g><g><path d="m37.8125191 34.7570572c-1.3353958-5.3252945-14.3390713-5.1448288-15.5084343-.0167618-.0056114.0167618-.0056114.0335922-.0112209.050354-.0056095-.0167618-.0056095-.0392036-.0112209-.0559654-.2577972-1.3283997.4932251-2.7127647 2.2587452-3.727232 3.0658016-1.7598763 8.0316677-1.7598763 11.0694523 0 1.4126357.8209648 2.5882605 2.2119732 2.2026786 3.7496052z" fill="#111d33"/></g></g></g><g><g><g><g><path d="m22.2902298 38.3823776c.1358585-.0776253.3169632-.0647125.5239677.0517197.4075356.2393417.7374477.8085938.7374477 1.2808418 0 .2263908-.0840969.3881073-.21348.4657288l.9243946-.5362434c.1293831-.0776215.21348-.2393417.21348-.4722443 0-.4722061-.3299141-1.0414619-.7374477-1.2743263-.2070045-.1229095-.3945847-.1293831-.5239677-.0517616z" fill="#e3e7f0"/></g></g></g></g><g><g><g><g><path d="m22.8159733 38.4366074c-.4088745-.2360611-.7403564-.0471611-.7416897.4226761-.001318.4650803.3280125 1.0355034.736887 1.2715645.4088726.2360649.7403564.0471611.7416744-.4179192.0013313-.4698334-.3279991-1.0402565-.7368717-1.2763214z" fill="#b0b8cf"/></g></g></g></g><g><g><path d="m10.0544949 46.5499039c.1343946.2783966.3263187.5183601.5662832.6911278.5375175.4127312 1.2766266.5086937 1.9389296.2015305.0864134-.0479774.1823759-.0959587.259181-.1535492l10.3376207-7.1893196.0288239-.0192184c.0096073-.0096054.0287647-.0192146.0383739-.0288239.0768032-.0671387.1151772-.1823158.1151772-.3359261 0-.3839645-.2687302-.844677-.5951061-1.0366592-.1343365-.0767479-.2591228-.0959625-.3551426-.0671997-.0191574 0-.0287647.0096092-.0479813.0192184l-.0479813.0192146-11.3455181 5.4039993c-.9406414.4414978-1.3342152 1.5645714-.8926601 2.4956055z" fill="#df3260"/></g></g><g><g><path d="m10.0544949 46.5499039c.1343946.2783966.3263187.5183601.5662832.6911278.3743582.0767479.777482.0287666 1.1518402-.144001.0864124-.0479813.182375-.0959625.2591801-.153553l10.3376799-7.1893768.0287647-.0191574c.0096092-.0096092.0192165-.0192184.0383739-.0288239.0671959-.0671997.1152363-.1823769.1152363-.3359299 0-.2399635-.105629-.4991417-.2591801-.7198906l-11.3455181 5.4039993c-.9406414.4414978-1.3342152 1.5645714-.8926601 2.4956055z" fill="#f45170"/></g></g></g><g opacity=".2"><g><g><path d="m22.2897263 34.7914238c.0280876.1405525.0749397.2811661.1311722.4123955.2999287.8154068.9934902 1.5839653 2.0713596 2.2212944 3.0692158 1.7727318 8.0130253 1.7451324 11.069006 0 .0280876-.0187645.0656166-.0374718.0937042-.0562325.9899025-.5737 1.9304123-1.4883118 2.1556816-2.6149292-.3080864-1.5413666-1.8727493-2.5753021-3.3178711-3.1773148h-.0093842c-.5998573-.2343159-1.2465668-.4123955-1.9119835-.5436268h-.0093803c-.4519653-.0950966-1.4667454-.2249317-2.01507-.2249317h-.0093822c-1.1466885-.0337563-2.2027512.0690804-3.1210823.2624016h-.0093823c-.1405544.0281448-.2717838.0562344-.4030132.0937614-1.3436012.3290367-2.8642731.9768753-3.8052635 1.9963608-.074995.0749397-.1406097.1499367-.1968441.2155533-.2249317.2811661-.4030132.5623322-.5248623.8528786-.0843201.1874619-.1499348.3749237-.1874046.5623894z" fill="#638eff"/></g></g></g></g></g><g><g><g enable-background="new"><g><g><path d="m22.9335423 34.256546.0075378-2.6507015c-.0003033.1072426.0066032.2145214.0207214.3215733l-.0075378 2.6507034c-.0141201-.1070557-.0210247-.2143326-.0207214-.3215752z" fill="#c14242"/></g></g><g><g><path d="m34.7213097 28.1895542-.0099487 2.9899902-4.8900127 2.8400288-6.8699951.5599976.0100098-3.0000019c-.1500244-1.1500244.5299683-2.3200073 2.0499878-3.2000122 2.6499632-1.5399781 6.909973-1.6099854 9.7099589-.1900025z" fill="#656fea"/></g></g><g><g><path d="m34.7182541 28.1866188-.0099754 2.9937439-4.891058 2.8423691.0099773-2.993742z" fill="#656fea"/></g></g><g><g><path d="m29.827198 31.0289898-.0099773 2.993742-6.862957.5553856.0099754-2.993742z" fill="#6f93f1"/></g></g><g><g><path d="m34.7182541 28.1866188-4.8910561 2.842371-6.8629589.5553856c-.1518269-1.1511574.5304279-2.3285465 2.0428963-3.2074966 2.650568-1.5403424 6.9117985-1.6037636 9.7111187-.19026z" fill="#6bb4f9"/></g></g><g><g><path d="m37.1713219 31.8895664-.0100098 2.4199848c0 .960022-.5899658 1.9299927-1.7600098 2.7000122l-4.7399883-2.7399902v-2.4400043l.0300293.0100098 4.6599712-2.7000122c1.210022.7799682 1.8200074 1.7700195 1.8200074 2.7499999z" fill="#febc1f"/></g></g><g><g><path d="m37.166832 31.8698273-.0075417 2.4374199c-.002739.9664688-.5866165 1.9316254-1.7538719 2.7021103l.0075378-2.4374084c1.1672554-.7704926 1.7511368-1.7356492 1.7538758-2.7021218z" fill="#febc1f"/></g></g><g><g><path d="m35.3519974 29.1367989c2.3961906 1.5512619 2.4226723 3.9071236.0609627 5.4660568l-4.7488537-2.7417507z" fill="#ffde9b"/></g></g><g><g><path d="m35.4129601 34.5719452-.0075417 2.4374123-4.7488518-2.7417489.0075398-2.4374141z" fill="#ffd06c"/></g></g><g><g><path d="m29.5213604 32.7295341-.0100098 1.8400269-.7999878 3.7600098c-1.3500366-.1500244-2.6400146-.5200195-3.6800537-1.1300049-1.039978-.5999756-1.6900024-1.3400269-1.9599609-2.1099854l.0100098-1.8400269z" fill="#72d561"/></g></g><g><g><path d="m29.5201874 32.7268333-.7997971 3.7639275c-1.3483925-.150856-2.6376534-.5269089-3.6847591-1.1314545-1.0357285-.5979805-1.6872425-1.3380737-1.9577389-2.113163z" fill="#78e75a"/></g></g><g><g><path d="m29.5201874 32.7268333-.0075398 1.8414078-.799797 3.7639275.0075397-1.8414078z" fill="#50b069"/></g></g><g><g><path d="m28.7203903 36.4907608-.0075397 1.8414116c-1.3483925-.1508598-2.6376534-.5269127-3.6847591-1.1314583-1.0357265-.5979805-1.6872406-1.3380737-1.9577389-2.113163l.0075359-1.841404c.2705002.7750854.9220142 1.5151787 1.9577427 2.1131592 1.0471058.6045456 2.3363666.9805985 3.6847591 1.1314545z" fill="#72d561"/></g></g><g><g><path d="m34.7813072 35.529583v1.8399658c-1.4699707.7600098-3.3399639 1.1000366-5.1900005 1.0300293l.0100098-1.8400269.7600098-3.5800171z" fill="#7e5af2"/></g></g><g><g><path d="m34.7846489 35.5330849-.0075378 1.8414116c-1.4641113.7521248-3.3400898 1.0921249-5.1825008 1.0221748l.007534-1.841404c1.8424148.0699463 3.7183971-.2700538 5.1825046-1.0221824z" fill="#7e5af2"/></g></g><g><g><path d="m34.7846489 35.5330849c-1.4641075.7521286-3.3400898 1.0921288-5.1825008 1.0221786l.7612228-3.5748062z" fill="#b28afd"/></g></g></g></g></g></g><g><g><g><g><path d="m14.7099466 30.5285931-4.2046089 2.4373302-2.2986526-1.3284016 4.2046089-2.4372615z" fill="#f45170"/></g></g></g><g><g><g><path d="m20.4278145 27.2140503-4.2046089 2.4373321-2.2986527-1.3284034 4.2046089-2.4372597z" fill="#f9cf6b"/></g></g></g><g><g><g><path d="m26.1456833 23.8995094-4.2046089 2.4373322-2.2986546-1.3284035 4.2046108-2.4372597z" fill="#78e75a"/></g></g></g></g></g><g><g><g><g><g><path d="m35.2313194 21.5595493c0 .0700073-.039978.1600342-.1199951.2299805-.0200195.0200195-.0599976.0500488-.0899658.0700073l-1.8000488 1.0300293c-.2799683.1599731-.7299805.1599731-1 0l-1.7899761-1.039978c-.1400146-.0800171-.210022-.1900024-.210022-.2900391l-.039978-12.7600098c0-.0999756.0700073-.2099609.210022-.289978l1.7899761-1.0300293c.289978-.1699829.7299805-.1699829 1.0100098 0l1.789978 1.0300293c.1400146.0800171.210022.1900024.210022.289978v.0100098z" fill="#febc1f"/></g></g></g><g><path d="m30.1791401 8.8034058.0459709 12.7564201c0 .107214.0663834.2093468.2042351.2910671l1.7872219 1.0365734c.2808762.1582947.7302361.1582947 1.00597 0l1.7974472-1.0314941c.1378479-.0867996.2093468-.1889324.2093468-.2961464l-.0408593-12.7513084v-.0051117c0-.1021338-.0714684-.2093468-.2093468-.2910662l-1.7872238-1.0365734c-.2757339-.1634073-.7250938-.1634073-1.00597 0l-1.7974148 1.0365734c-.1378822.0817194-.2093772.1889324-.2093772.2910662z" fill="#ffd06c"/></g><g enable-background="new"><g><g><path d="m30.1785412 8.8037205.0449677 12.7558804c0 .1049023.0699043.2098045.2047729.2897091l1.7881565 1.0389328c.2797127.1598377.729229.1598377 1.0039673 0l1.7981262-1.0339336c.1398697-.0849037.209774-.189806.209774-.2947083l-.039936-12.7558804c0 .1049023-.0699348.2147741-.2098045.2947083l-1.7981262 1.0339336c-.2747116.1648073-.7292557.1648073-1.0089645 0l-1.7831593-1.0389338c-.1398393-.0799341-.2097741-.1848059-.2097741-.2897081z" fill="#febc1f"/></g></g></g><g><path d="m34.167202 14.2117758.0408592 9.6663237c0 .1021328.0714951.2093773.2093773.2910671l1.7872238 1.0365734c.2757301.1583271.7250938.1583271 1.0059357 0l1.7923355-1.0314636c.1480751-.0867996.2144585-.1940441.2144585-.2961769l-.0408592-9.6561012c0 .0050802-.0050812.0050802-.0050812.0101919.0101929-.1123257-.0561943-.2246809-.2042656-.3114805l-1.7872238-1.0365734c-.2757339-.1634073-.7250938-.1634073-1.00597 0l-1.7974129 1.0365734c-.1378822.0817194-.2093773.1889324-.2042694.2961769z" fill="#9bd899"/></g><g><g><g><path d="m39.2213097 23.8795567c0 .0999756-.0700073.210022-.2199707.289978l-1.789978 1.0400391c-.2800293.1599731-.7300415.1599731-1.0100098 0l-1.7800293-1.0400391c-.1400146-.0799561-.2099609-.1900024-.2099609-.289978l-.0400391-9.6699829c0-.1000366.0700073-.210022.210022-.2900391l1.789978-1.0299683c.2800293-.1699829.7299805-.1699829 1.0100098-.0100098l1.789978 1.039978c.1538086.0904541.2131348.213623.1959229.3324585.0006714-.0102539.0040894-.0202637.0040894-.0324097v.0699463z" fill="#5ec363"/></g></g></g><g enable-background="new"><g><g><path d="m34.1694069 14.2122259.0399666 9.6649828c0 .1049023.0699348.2098045.209774.2897091l1.7831573 1.0389328c.2797089.1598377.7292557.1598377 1.0089645 0l1.793129-1.0339336c.1448669-.0849037.2147713-.189806.2147713-.2947083l-.0449333-9.6549835c0 .0998716-.0749359.209774-.2097778.2846785l-1.7931557 1.0389328c-.2797089.1598387-.7292557.1598387-1.0089645-.0049992l-1.7881279-1.0389032c-.1348687-.0799342-.2048035-.1848364-.2048035-.2897082z" fill="#5ec363"/></g></g><g><g><path d="m34.378582 13.9216728c-.2774429.160181-.278923.421628-.003273.5818186l1.7869148 1.0384426c.2788086.1620255.7301941.162034 1.007637.001853l1.7954178-1.0365849c.2806435-.1620293.282093-.4234829.0032845-.5855083l-1.7869186-1.0384436c-.2756462-.1601896-.7270012-.1601915-1.0076447.0018377z" fill="#78e75a"/></g></g></g><g enable-background="new"><g><g><path d="m38.1603737 12.2181091.0408592 13.9782639c0 .1021328.0663834.2093773.2093468.2859554l1.7821426 1.0417156c.2808456.1582947.7302055.1582947 1.0110474 0l1.7923355-1.0366058c.1378517-.0816879.2093468-.1889324.2093468-.2910652l-.0408592-13.9782639c0-.1021338-.0663528-.2093782-.2093468-.2910662l-1.7821121-1.0366049c-.2757645-.1633759-.7302055-.1633759-1.0110474 0l-1.7923355 1.036605c-.142994.0766077-.2093773.1838207-.2093773.2910661z" fill="#638dff"/></g></g></g><g><g><g><path d="m43.2013512 26.199564c0 .0999756-.0700073.210022-.210022.289978l-1.789978 1.0300293c-.2800293.1599731-.7300415.1599731-1.0100098 0l-1.7800293-1.0400391c-.1399536-.0699463-.2099609-.1799927-.2099609-.2799683l-.0400391-13.9799805c0-.1100464.0700073-.210022.210022-.2900391l1.789978-1.039978c.2800293-.1600342.7300415-.1600342 1.0100098 0l1.7900391 1.039978c.1299438.0800171.1999512.1799927.1999512.2900391z" fill="#678aee"/></g></g></g><g enable-background="new"><g><g><path d="m38.1602707 12.217062.0399666 13.9777565c0 .1049023.0699348.209774.209774.2897072l1.7831573 1.0389023c.2797089.1598396.7292557.1598396 1.0089645 0l1.793129-1.0339012c.1398697-.0849342.2098045-.189806.2098045-.2947083l-.0399665-13.9777565c0 .1048717-.0699348.2147741-.209774.2946777l-1.7981606 1.0389328c-.2747078.1598387-.7292252.1598387-1.003933-.0049992l-1.7881584-1.0339336c-.1348686-.0799036-.2048034-.1848058-.2048034-.2946777z" fill="#678aee"/></g></g><g><g><path d="m38.3674698 11.9269896c-.2774391.160181-.278923.421629-.0001144.5836544l1.7837601 1.0366077c.2788086.1620255.7301941.162034 1.007637.001853l1.7954178-1.0365858c.2806396-.1620283.282093-.4234819.0032845-.5855074l-1.7837601-1.0366077c-.2788086-.1620255-.7301636-.1620283-1.0108032.000001z" fill="#8fabfe"/></g></g></g><g enable-background="new"><g><g><path d="m42.1484337 18.8534641.0408592 9.6612129c0 .1021347.0714989.2093468.2042656.2859554l1.792305 1.0416851c.2706528.1582947.7251244.1582947 1.0008583 0l1.7974472-1.0365734c.1429596-.0766087.2093468-.1889324.2093468-.2910671l-.0357513-9.6663227c0 .0255241-.0051117.0510502-.0153008.0816879.0408592-.1327705-.0204468-.2706203-.194046-.3727551l-1.7872238-1.0366039c-.2757301-.1634083-.7302017-.1634083-1.0110474 0l-1.7923355 1.0366039c-.1429901.081688-.214489.1889325-.2093773.296177 0 .0510521.0204468.1021023.0510826.1531849-.0357475-.0510826-.0510826-.1021328-.0510826-.1531849z" fill="#ffd651"/></g></g></g><g><g><g><path d="m47.1513023 18.8495884c0-.1100464-.0699463-.210022-.1999512-.2900391l-1.7900391-1.039978c-.2799683-.1600342-.7299805-.1600342-1.0100098 0l-1.789978 1.039978c-.1844482.1033325-.2472534.249939-.196228.3841553-.0125732-.0311279-.0237427-.062439-.0237427-.0941162l.0499878 9.6599731c0 .1099854.0700073.210022.2000122.289978l1.789978 1.0400391c.2800293.1599731.7299805.1599731 1.0100098 0l1.789978-1.0300293c.1400146-.0800171.210022-.1900024.210022-.2999878zm-4.9840088.1027832c.0186768.0446167.0497437.0877686.0940552.1271973-.0453491-.0396729-.0744018-.0828858-.0940552-.1271973z" fill="#e93565"/></g></g></g><g enable-background="new"><g><g><path d="m42.1461639 18.8524113.0449371 9.6600151c0 .1048717.0699348.209774.2048035.2896786l1.7881279 1.0389328c.2747421.1598377.7292557.1598377 1.0039673 0l1.7981567-1.0339336c.1398392-.0799046.209774-.189806.209774-.2946777l-.0399666-9.6650143c0 .1099014-.0699348.2147732-.2147751.2947083l-1.7931252 1.0389328c-.2797432.1598377-.7292595.1598377-1.0089684-.0049992l-1.7831573-1.0339336c-.1398695-.0799352-.2097739-.184807-.2097739-.2897092z" fill="#e93565"/></g></g><g><g><path d="m42.3563614 18.5578518c-.2774429.160181-.278923.421627-.0000954.5836658l1.7837372 1.0365944c.2788086.1620255.7301941.162035 1.007637.0018539l1.7954178-1.0365849c.2806435-.1620293.282093-.4234829.0032845-.5855083l-1.7837372-1.0365963c-.2788315-.1620369-.7301826-.1620388-1.0108261-.0000095z" fill="#f45170"/></g></g></g></g><g><g><path d="m30.3896923 8.5126867c-.277441.160181-.278923.421628-.0032749.5818186l1.7869186 1.0384426c.2788086.1620255.7301712.1620216 1.0076141.0018406l1.7954178-1.0365849c.2806435-.1620293.2821159-.4234705.0033073-.5854959l-1.7869186-1.0384436c-.27565-.1601896-.727005-.1601915-1.0076447.0018373z" fill="#ffd06c"/></g></g></g></g><g><g enable-background="new"><g><g><g><path d="m17.831358 15.8695469-4.000001 2.3099975-2 4.8099976-1.3400269-.7799683-1.1599731-1.4299926-3.5200191 2.0299682-1.3400268-.7799682-.039978-12.9700318 12.02002-6.9400024 1.3399658.7800293z" fill="#f9a83d"/></g></g></g></g></g><g><g enable-background="new"><g><g><path d="m11.8315573 22.9922142-1.3445425-.7813625-2.0200634-2.4925976 1.3445425.7813625z" fill="#ef7b56"/></g></g><g><g><path d="m5.8123813 22.808506-1.3445421-.7813625-.0367684-12.96945 1.344542.7813616z" fill="#f9a83d"/></g></g><g><g><path d="m5.7756128 9.8390551-1.344542-.7813616 12.0176387-6.9383881 1.3445434.7813623z" fill="#f9cf6b"/></g></g><g><g><path d="m17.7932529 2.9006677.036768 12.9694495-3.9950533 2.3065452-2.0034103 4.8155518-2.0200634-2.4925976-3.9991126 2.3088894-.0367685-12.9694509z" fill="#ffb961"/></g></g><g><g><g><path d="m9.4622869 14.6146049c-.110424-.0903482-.2476015-.1304989-.4115524-.1137733-.153923.0100479-.3479977.0535479-.5755234.1238012l-.0033493-1.3015814c.2409229-.1271496.4751472-.2108002.6859474-.2476215.0368013-.0033283.0669041-.0133762.0903282-.0267534.0702734-.0401506.1271496-.1003962.1673002-.1840467.0434999-.076951.0635748-.153903.0635748-.2241764 0-.1271496-.0568762-.187376-.1606016-.1673002-.2476006.0334721-.5320234.1338482-.8498783.3011484v-.3647232c0-.0602255-.0200958-.1003761-.0535469-.1204519-.0368013-.0200748-.0803013-.0133762-.1304998.0167265-.0535269.0301228-.0970268.0736227-.1304789.1338482-.0334721.0602255-.0501976.120451-.0501976.1806774l.0033493.3680725c-.2308755.1572523-.428299.341279-.5922499.5453806-.1739988.2108002-.3044777.4316473-.3914771.6558247-.0836501.2208471-.1271501.4383259-.1271501.6424274 0 .2342243.0535274.3981752.1606021.4885244.1070747.0903482.2409229.1304989.3981757.120451.1539235-.0100279.3379498-.0434999.5587769-.1037254l.0033493 1.2581024c-.2810531.1438751-.5520787.2241764-.8097277.2442513-.033452 0-.0669241.0100479-.1070747.0334721-.0669241.0401516-.1238003.1003761-.1673002.1806774-.0434995.0803013-.0669241.1572723-.0669241.230875 0 .0568771.0167465.1003761.0468488.1304989.0301232.033453.0669246.0501785.1137733.0435009.307827-.0267754.6390781-.1271515.9904046-.3011494v.3747501c0 .0635757.0200758.1037254.0535479.1204529.033452.0167446.076952.0100479.1271496-.0200768.0535269-.0301018.1003761-.0769501.1338282-.1304779.0334721-.0602264.0501986-.120472.0501986-.1773491v-.3780994c.2174778-.1438751.418251-.3178749.5889006-.5119286.1773272-.2007732.317874-.418251.4115515-.6424475.0970268-.2241774.1472254-.4450045.1472254-.6524553-.0000001-.2543002-.0568763-.4316483-.1673004-.5253259zm-1.7968039.153904c-.1037254-.0267534-.1572728-.1137533-.1572728-.2743549 0-.1639719.0535474-.3279228.1673002-.495223.110424-.1639509.2509508-.3111763.4316483-.4483528l.0033493 1.1811295c-.1940742.0501975-.3446489.0635747-.445025.0368012zm.8130774 1.616127-.0033493-1.1510277c.2108002-.0501776.3714018-.0736027.4818258-.0602255.110424.0133762.1639509.0869989.1639509.2241764.0000001.3714228-.2074508.6926261-.6424274.9870768z" fill="#1d2943"/></g></g><g><g><path d="m12.9655457 12.5902758c-.1104031-.0903492-.2442513-.1304998-.4082031-.1137733-.153923.0100479-.3479767.0535269-.5788527.1238003l-.0033484-1.3016014c.2442513-.1271496.4751263-.2108002.6859264-.2476015.0401506-.0033484.0702734-.0133762.0936985-.0267735.0669041-.0401506.1238003-.1003761.1673002-.1840258.0401506-.076952.0602255-.1505747.0602255-.2241774 0-.1271496-.0568972-.1840258-.1606216-.1673002-.2476015.033452-.5320044.1371775-.8498783.3011494v-.3647242c0-.0568762-.0167265-.1003761-.0535278-.1171017-.0334721-.0234251-.0803213-.0167465-.1304989.0133762-.0535479.0301228-.0936975.0736027-.1271496.1338482-.0368013.0602264-.0535479.1204519-.0535479.1806774l.0033493.3714018c-.2275257.153924-.4249287.3379498-.5922289.5420513-.1706495.2108002-.3011494.4316483-.3881483.6558247-.0869999.2241764-.1304998.4416752-.1304998.6457767 0 .230875.0568972.3948259.1639719.4851751.1037254.0903282.2409029.1304989.3981752.120451.1505547-.0066986.3346014-.0401506.5554285-.1003761l.0033493 1.2581024c-.2810736.1438751-.5520992.2241764-.8063993.2409019-.033452.0033493-.0702524.0133972-.1070747.033473-.0702524.0401497-.1271296.1003761-.1706285.1806765-.0434999.0803013-.0635748.1572523-.0635748.230875 0 .0568771.0133762.1003761.043499.1338282.0301027.0301237.0702534.0468493.1137533.0434999.307827-.0267534.6390982-.1304789.9904251-.3011284v.3747511c.0033493.0602255.0200748.1037254.0535269.120451.0334721.0167265.076972.0100479.1271496-.0200748.0568771-.033452.1003761-.076952.1338491-.1338482.033452-.0602255.0501776-.1204519.0501776-.1773281v-.3747511c.2208481-.1472254.418251-.3178749.5889006-.5119486.1773481-.2007523.3178749-.4215794.4149017-.6457767.0970469-.2241764.1472244-.4450045.1472244-.6524754-.0033493-.2542791-.0568762-.4316272-.1706495-.5253047zm-1.7968035.153903c-.1037254-.0234241-.153903-.1137533-.153903-.274375 0-.1639509.0535269-.3279018.1673002-.4952021.1070747-.1606026.2509499-.3111763.428278-.4450254l.0033493 1.1778011c-.1907244.0501986-.3412991.0635748-.4450245.0368014zm.813097 1.6194763-.0033493-1.1510277c.2141294-.0535469.3747511-.076972.4851551-.0635748.1070747.0133772.1606226.0869999.1639719.2241774 0 .3714018-.2108002.6959743-.6457777.9904251z" fill="#1d2943"/></g></g><g><g><path d="m16.4721737 10.5659256c-.1104221-.0903282-.2476006-.1271505-.4082222-.1137533-.153904.0133772-.3513269.0568762-.582202.1238012l-.0033493-1.3016014c.2442722-.1271505.4784765-.2108002.6892767-.2476015.0368214-.0033493.0669231-.0133772.0903492-.0267744.0702724-.0401497.1271496-.0970268.1672993-.1806765.0401497-.0803013.0635757-.153924.0635757-.2275257 0-.1271505-.0568771-.1840267-.1606026-.1673002-.2476006.0334511-.5353727.1371765-.8498983.3011274v-.3613539c0-.0602255-.0200758-.1037254-.0568762-.120471-.033452-.0200758-.076952-.0167265-.1304998.0133963-.0501776.0301027-.0936775.076952-.1271496.1371775-.033452.0568762-.0501776.1204519-.0501776.1773481v.3714018c-.2275267.1572523-.4249496.3412991-.5889006.5420513-.1706495.2108002-.3044977.4349775-.3914776.659174-.0836496.2208281-.1271496.4383259-.1271496.6424274 0 .230876.0535269.3948269.1606016.4851751.1070747.0903282.2409229.1338282.4015255.1204519.1505737-.0066986.3346004-.0401506.5520782-.1003761l.0033493 1.2580805c-.2777033.1438971-.5487289.2241974-.8063784.2409239-.0334721.0033493-.0702734.0133762-.1070747.0368004-.0669241.0368013-.1238003.0970478-.1673002.1806974-.0434999.076952-.0635748.153904-.0635748.2275267 0 .0568762.0133762.1003761.0434999.1338282.0301018.0301228.0702734.0468483.1137524.043499.3044977-.0267735.6390991-.1304989.9904251-.3011284v.3747511c0 .0602264.0167265.1037254.0535479.1204519.033452.0167255.076951.0100269.1271296-.0200758.0535469-.0301228.0970469-.076951.1338482-.1338482.033452-.0602255.0501986-.120451.0501986-.1773272l-.0033493-.3747511c.2241764-.1472254.4182501-.3178749.5889006-.5119495.1806774-.2007523.3178539-.4182501.418251-.6457767.0936775-.2208271.1438751-.4450245.1438751-.6524754-.0033492-.2542991-.0568771-.4316273-.1673011-.5253248zm-1.7968025.153923c-.1070747-.0234241-.1572733-.110424-.1572733-.2710257 0-.1639509.0535479-.3312511.1673002-.4985514.110424-.1606226.2543001-.3111763.4316483-.4450245l.0033283 1.1778002c-.1940537.0501786-.3446274.0635758-.4450035.0368014zm.8130769 1.6194764-.0033493-1.1510267c.2108002-.0535479.3714018-.0736227.4818258-.0602465.110424.0100479.16395.0836506.16395.2241974.0033493.3680524-.2074499.6926259-.6424265.9870758z" fill="#1d2943"/></g></g></g></g></g></g></svg>