<svg xmlns="http://www.w3.org/2000/svg" xmlns:xlink="http://www.w3.org/1999/xlink" id="Layer_5" height="512" viewBox="0 0 62 62" width="512"><linearGradient id="SVGID_1_" gradientUnits="userSpaceOnUse" x1="31" x2="31" y1="62" y2="0"><stop offset="0" stop-color="#9f2fff"></stop><stop offset="1" stop-color="#0bb1d3"></stop></linearGradient><path d="m40 41c0 3.859 3.141 7 7 7s7-3.141 7-7-3.141-7-7-7-7 3.141-7 7zm7-5c2.757 0 5 2.243 5 5s-2.243 5-5 5-5-2.243-5-5 2.243-5 5-5zm.095-6h-.095v-25c0-2.757-2.243-5-5-5h-22c-2.757 0-5 2.243-5 5v31h-15v26h62v-26h-5.179c-1.8-3.553-5.479-6-9.726-6zm8.905 10.905c0 1.821-.548 3.573-1.584 5.069l-6.669 9.634c-.34.49-1.154.49-1.494 0l-6.669-9.634c-1.036-1.495-1.584-3.247-1.584-5.069 0-4.578 3.473-8.357 7.922-8.848l.169-.015c.269-.024.539-.042.814-.042h.189c4.911 0 8.906 3.995 8.906 8.905zm-28 9.095h4v-2h-8v-4h8v-2h-8v-4h12.405c-.257.927-.405 1.898-.405 2.905 0 2.229.671 4.377 1.939 6.208l6.152 8.887h-16.091zm-20-9.586 2.414-2.414h11.586v10h-14zm33-28.414h-20v-6h20zm-20 2h20v6h-20zm0 8h20v6h-20zm0 8h20v1.751c-1.621 1.05-2.943 2.516-3.821 4.249h-16.179zm-4-25c0-1.654 1.346-3 3-3h22c1.654 0 3 1.346 3 3v25.178c-.692.123-1.36.311-2 .558v-24.736c0-1.103-.897-2-2-2h-20c-1.103 0-2 .897-2 2v30h-2zm-9.414 33-5.586 5.586v-5.586zm-5.586 8.414 4-4v7.586h20v4h-12v6h-12zm14 13.586v-4h10v2h34v2zm44-22v18h-10.091l6.152-8.887c1.268-1.831 1.939-3.978 1.939-6.208 0-1.007-.148-1.979-.405-2.905zm-2.465-23.535c-.944-.944-2.2-1.465-3.535-1.465s-2.591.521-3.535 1.465l-1.414-1.414c1.321-1.322 3.079-2.051 4.949-2.051s3.628.729 4.949 2.051zm-1.414 1.414-1.414 1.414c-.391-.391-1.023-.391-1.414 0l-1.414-1.414c1.17-1.17 3.072-1.17 4.242 0zm-1.121 4.121c0 .552-.448 1-1 1s-1-.448-1-1 .448-1 1-1 1 .448 1 1zm0 4c0 .552-.448 1-1 1s-1-.448-1-1 .448-1 1-1 1 .448 1 1zm-45-4c0 .552-.448 1-1 1s-1-.448-1-1 .448-1 1-1 1 .448 1 1zm0 4c0 .552-.448 1-1 1s-1-.448-1-1 .448-1 1-1 1 .448 1 1zm-5.949-10.949c1.321-1.322 3.079-2.051 4.949-2.051s3.628.729 4.949 2.051l-1.414 1.414c-.944-.944-2.2-1.465-3.535-1.465s-2.591.521-3.535 1.465zm7.07 2.828-1.414 1.414c-.391-.391-1.023-.391-1.414 0l-1.414-1.414c1.17-1.17 3.072-1.17 4.242 0zm23.879-5.879h-2v-2h2zm-4 0h-2v-2h2zm8 0h-2v-2h2zm-6 6v2h-2v-2zm-10 0h2v2h-2zm4 0h2v2h-2zm6 8h2v2h-2zm-4 0h2v2h-2zm10 0v2h-2v-2zm-6 8v2h-2v-2zm-6 0h2v2h-2zm-4 0h2v2h-2zm-13 8v6h10v-6zm8 4h-6v-2h6z" fill="url(#SVGID_1_)"></path></svg>