<svg xmlns="http://www.w3.org/2000/svg" id="Layer_1" viewBox="0 0 64 64"><path d="m45 55h8c1.105 0 2-.895 2-2v-32c0-1.105-.895-2-2-2h-8c-1.105 0-2 .895-2 2v32c0 1.105.895 2 2 2z" fill="#56aaff"></path><path d="m41 31h-8c-1.105 0-2 .895-2 2v10h-10c-1.105 0-2 .895-2 2v8c0 1.105.895 2 2 2h20c1.105 0 2-.895 2-2v-20c0-1.105-.895-2-2-2z" fill="#0478ed"></path><path d="m11 33h8c1.105 0 2-.895 2-2v-10h10c1.105 0 2-.895 2-2v-8c0-1.105-.895-2-2-2h-20c-1.105 0-2 .895-2 2v20c0 1.105.895 2 2 2z" fill="#d9dce1"></path><g><g><path d="m34.5 21.5 3.455 3.455" fill="none" stroke="#d9dce1" stroke-miterlimit="10" stroke-width="2"></path><g><path d="m35.221 26.452 5.779 1.548-1.548-5.779z" fill="#d9dce1"></path></g></g></g><g><g><path d="m21.5 34.5 3.455 3.455" fill="none" stroke="#d9dce1" stroke-miterlimit="10" stroke-width="2"></path><g><path d="m22.221 39.452 5.779 1.548-1.548-5.779z" fill="#d9dce1"></path></g></g></g></svg>