<?xml version="1.0" encoding="UTF-8"?>
<svg xmlns="http://www.w3.org/2000/svg" xmlns:xlink="http://www.w3.org/1999/xlink" version="1.1" id="Capa_1" x="0px" y="0px" viewBox="0 0 512 512" style="enable-background:new 0 0 512 512;" xml:space="preserve" width="512" height="512">
<g>
	<path style="fill:#FDB441;" d="M488.996,504.5H317.032c-8.563,0-15.504-6.941-15.504-15.504V370.333&#10;&#9;&#9;c0-8.563,6.941-15.504,15.504-15.504h171.964c8.563,0,15.504,6.941,15.504,15.504v118.663&#10;&#9;&#9;C504.5,497.559,497.559,504.5,488.996,504.5z"/>
	<path style="fill:#FE9738;" d="M488.996,354.829h-30c8.563,0,15.504,6.941,15.504,15.504v118.663&#10;&#9;&#9;c0,8.563-6.941,15.504-15.504,15.504h30c8.563,0,15.504-6.941,15.504-15.504V370.333C504.5,361.77,497.559,354.829,488.996,354.829&#10;&#9;&#9;z"/>
	<path style="fill:#EDF9D9;" d="M219.5,503h-176c-19.882,0-36-16.118-36-36V107c0-19.882,16.118-36,36-36h176&#10;&#9;&#9;c19.882,0,36,16.118,36,36v360C255.5,486.882,239.382,503,219.5,503z"/>
	<path style="fill:#D5EFC8;" d="M225.5,71.507v430.986c17.025-2.858,30-17.656,30-35.493V107&#10;&#9;&#9;C255.5,89.163,242.525,74.365,225.5,71.507z"/>
	<path style="fill:#3692BC;" d="M219.5,503h-176c-19.882,0-36-16.118-36-36v-7h248v7C255.5,486.882,239.382,503,219.5,503z"/>
	<path style="fill:#0681AF;" d="M225.5,460v7c0,19.882-16.118,36-36,36h30c19.882,0,36-16.118,36-36v-7H225.5z"/>
	<path style="fill:#3692BC;" d="M165.5,131h-68c-8.284,0-15-6.716-15-15v0c0-8.284,6.716-15,15-15h68c8.284,0,15,6.716,15,15v0&#10;&#9;&#9;C180.5,124.284,173.784,131,165.5,131z"/>
	<path style="fill:#FE7AB6;" d="M195.5,413.403h-128c-2.209,0-4-1.791-4-4v-52c0-2.209,1.791-4,4-4h128c2.209,0,4,1.791,4,4v52&#10;&#9;&#9;C199.5,411.612,197.709,413.403,195.5,413.403z"/>
	<path style="fill:#FE5CA7;" d="M195.5,353.403h-30c2.209,0,4,1.791,4,4v52c0,2.209-1.791,4-4,4h30c2.209,0,4-1.791,4-4v-52&#10;&#9;&#9;C199.5,355.194,197.709,353.403,195.5,353.403z"/>
	<path style="fill:#EAF6FF;" d="M504.5,28.861v234.278c0,11.797-9.639,21.361-21.529,21.361h-135.18&#10;&#9;&#9;c-11.89,0-21.529-9.564-21.529-21.361v-69.424c0-1.472-0.739-2.847-1.97-3.667l-35.606-23.723c-1.307-0.871-1.307-2.778,0-3.649&#10;&#9;&#9;l35.606-23.723c1.231-0.82,1.97-2.196,1.97-3.667V28.861c0-11.797,9.639-21.361,21.529-21.361h135.18&#10;&#9;&#9;C494.861,7.5,504.5,17.064,504.5,28.861z"/>
	<path style="fill:#D8ECFE;" d="M482.971,7.5h-30c11.89,0,21.529,9.564,21.529,21.361v234.278c0,11.797-9.639,21.361-21.529,21.361&#10;&#9;&#9;h30c11.89,0,21.529-9.564,21.529-21.361V28.861C504.5,17.064,494.861,7.5,482.971,7.5z"/>
	<circle style="fill:#EAF6FF;" cx="131.499" cy="252.14" r="17"/>
	<path style="fill:#EAF6FF;" d="M190.043,235.032l-9.502-19.129c-2.245-4.519-7.727-6.365-12.248-4.123l-14.076,6.98&#10;&#9;&#9;c-1.329,0.659-2.888-0.308-2.888-1.792v-15.698c0-5.042-4.087-9.129-9.129-9.129h-21.392c-5.046,0-9.137,4.091-9.137,9.137v15.69&#10;&#9;&#9;c0,1.484-1.559,2.451-2.888,1.792l-14.076-6.98c-4.521-2.242-10.003-0.396-12.248,4.123l-9.502,19.129&#10;&#9;&#9;c-2.244,4.518-0.399,9.999,4.12,12.24l6.205,3.077c1.482,0.735,1.482,2.849,0,3.584l-6.205,3.077&#10;&#9;&#9;c-4.519,2.241-6.364,7.722-4.12,12.24l9.504,19.134c2.244,4.517,7.723,6.362,12.242,4.121l14.081-6.982&#10;&#9;&#9;c1.329-0.659,2.888,0.308,2.888,1.792v15.69c0,5.046,4.091,9.137,9.137,9.137h21.392c5.042,0,9.129-4.087,9.129-9.129v-15.698&#10;&#9;&#9;c0-1.484,1.559-2.451,2.888-1.792l14.081,6.982c4.519,2.241,9.998,0.396,12.242-4.121l9.506-19.138&#10;&#9;&#9;c2.243-4.515,0.398-9.993-4.118-12.233l-6.209-3.079c-1.482-0.735-1.482-2.849,0-3.584l6.205-3.077&#10;&#9;&#9;C190.441,245.03,192.286,239.549,190.043,235.032z"/>
	<circle style="fill:#EAF6FF;" cx="131.499" cy="252.14" r="17"/>
	<path style="fill:#A8D3D8;" d="M190.043,235.032l-9.502-19.129c-2.245-4.519-7.727-6.365-12.248-4.123l-14.076,6.98&#10;&#9;&#9;c-1.329,0.659-2.888-0.308-2.888-1.792v-15.698c0-5.042-4.087-9.129-9.129-9.129h-21.392c-5.046,0-9.137,4.091-9.137,9.137v15.69&#10;&#9;&#9;c0,1.484-1.559,2.451-2.888,1.792l-14.076-6.98c-4.521-2.242-10.003-0.396-12.248,4.123l-9.502,19.129&#10;&#9;&#9;c-2.244,4.518-0.399,9.999,4.12,12.24l6.205,3.077c1.482,0.735,1.482,2.849,0,3.584l-6.205,3.077&#10;&#9;&#9;c-4.519,2.241-6.364,7.722-4.12,12.24l9.504,19.134c2.244,4.517,7.723,6.362,12.242,4.121l14.081-6.982&#10;&#9;&#9;c1.329-0.659,2.888,0.308,2.888,1.792v15.69c0,5.046,4.091,9.137,9.137,9.137h21.392c5.042,0,9.129-4.087,9.129-9.129v-15.698&#10;&#9;&#9;c0-1.484,1.559-2.451,2.888-1.792l14.081,6.982c4.519,2.241,9.998,0.396,12.242-4.121l9.506-19.138&#10;&#9;&#9;c2.243-4.515,0.398-9.993-4.118-12.233l-6.209-3.079c-1.482-0.735-1.482-2.849,0-3.584l6.205-3.077&#10;&#9;&#9;C190.441,245.03,192.286,239.549,190.043,235.032z"/>
	<circle style="fill:#FDB441;" cx="131.499" cy="252.14" r="17"/>
	<path style="fill:#FE7AB6;" d="M458.679,247.708h-87.071c-1.834,0-3.32-1.487-3.32-3.32v-53.359c0-1.834,1.487-3.32,3.32-3.32&#10;&#9;&#9;h87.071c1.834,0,3.32,1.487,3.32,3.32v53.359C461.999,246.222,460.513,247.708,458.679,247.708z"/>
	<path style="fill:#FE5CA7;" d="M458.679,187.708h-30c1.834,0,3.32,1.487,3.32,3.32v53.359c0,1.834-1.487,3.32-3.32,3.32h30&#10;&#9;&#9;c1.834,0,3.32-1.487,3.32-3.32v-53.359C461.999,189.195,460.513,187.708,458.679,187.708z"/>
	<g>
		<path style="fill:none;stroke:#000000;stroke-width:15;stroke-linecap:round;stroke-linejoin:round;stroke-miterlimit:10;" d="&#10;&#9;&#9;&#9;M7.5,395.848V107c0-19.882,16.118-36,36-36h176c19.882,0,36,16.118,36,36v360c0,19.882-16.118,36-36,36h-176&#10;&#9;&#9;&#9;c-19.882,0-36-16.118-36-36v-36.041"/>
		
			<line style="fill:none;stroke:#000000;stroke-width:15;stroke-linecap:round;stroke-linejoin:round;stroke-miterlimit:10;" x1="11" y1="460" x2="252.778" y2="460"/>
		<path style="fill:none;stroke:#000000;stroke-width:15;stroke-linecap:round;stroke-linejoin:round;stroke-miterlimit:10;" d="&#10;&#9;&#9;&#9;M165.5,131h-68c-8.284,0-15-6.716-15-15v0c0-8.284,6.716-15,15-15h68c8.284,0,15,6.716,15,15v0&#10;&#9;&#9;&#9;C180.5,124.284,173.784,131,165.5,131z"/>
		<path style="fill:none;stroke:#000000;stroke-width:15;stroke-linecap:round;stroke-linejoin:round;stroke-miterlimit:10;" d="&#10;&#9;&#9;&#9;M194.998,413.403h-128c-2.209,0-4-1.791-4-4v-52c0-2.209,1.791-4,4-4h128c2.209,0,4,1.791,4,4v52&#10;&#9;&#9;&#9;C198.998,411.612,197.207,413.403,194.998,413.403z"/>
		<path style="fill:none;stroke:#000000;stroke-width:15;stroke-linecap:round;stroke-linejoin:round;stroke-miterlimit:10;" d="&#10;&#9;&#9;&#9;M504.5,96.889v166.25c0,11.797-9.639,21.361-21.529,21.361h-135.18c-11.89,0-21.529-9.564-21.529-21.361v-69.424&#10;&#9;&#9;&#9;c0-1.472-0.739-2.847-1.97-3.667l-35.606-23.723c-1.307-0.871-1.307-2.778,0-3.649l35.606-23.723&#10;&#9;&#9;&#9;c1.231-0.82,1.97-2.196,1.97-3.667V28.861c0-11.797,9.639-21.361,21.529-21.361h135.18c11.89,0,21.529,9.564,21.529,21.361V60"/>
		<g>
			
				<line style="fill:none;stroke:#000000;stroke-width:15;stroke-linecap:round;stroke-linejoin:round;stroke-miterlimit:10;" x1="375.276" y1="52.333" x2="421.285" y2="52.333"/>
			
				<line style="fill:none;stroke:#000000;stroke-width:15;stroke-linecap:round;stroke-linejoin:round;stroke-miterlimit:10;" x1="375.276" y1="149.667" x2="421.285" y2="149.667"/>
			
				<line style="fill:none;stroke:#000000;stroke-width:15;stroke-linecap:round;stroke-linejoin:round;stroke-miterlimit:10;" x1="375.276" y1="76.667" x2="452.971" y2="76.667"/>
			
				<line style="fill:none;stroke:#000000;stroke-width:15;stroke-linecap:round;stroke-linejoin:round;stroke-miterlimit:10;" x1="375.276" y1="101" x2="452.971" y2="101"/>
		</g>
		
			<circle style="fill:none;stroke:#000000;stroke-width:15;stroke-linecap:round;stroke-linejoin:round;stroke-miterlimit:10;" cx="131.499" cy="252.14" r="17"/>
		<path style="fill:none;stroke:#000000;stroke-width:15;stroke-linecap:round;stroke-linejoin:round;stroke-miterlimit:10;" d="&#10;&#9;&#9;&#9;M190.043,235.032l-9.502-19.129c-2.245-4.519-7.727-6.365-12.248-4.123l-14.076,6.98c-1.329,0.659-2.888-0.308-2.888-1.792&#10;&#9;&#9;&#9;v-15.698c0-5.042-4.087-9.129-9.129-9.129h-21.392c-5.046,0-9.137,4.091-9.137,9.137v15.69c0,1.484-1.559,2.451-2.888,1.792&#10;&#9;&#9;&#9;l-14.076-6.98c-4.521-2.242-10.003-0.396-12.248,4.123l-9.502,19.129c-2.244,4.518-0.399,9.999,4.12,12.24l6.205,3.077&#10;&#9;&#9;&#9;c1.482,0.735,1.482,2.849,0,3.584l-6.205,3.077c-4.519,2.241-6.364,7.722-4.12,12.24l9.504,19.134&#10;&#9;&#9;&#9;c2.244,4.517,7.723,6.362,12.242,4.121l14.081-6.982c1.329-0.659,2.888,0.308,2.888,1.792v15.69c0,5.046,4.091,9.137,9.137,9.137&#10;&#9;&#9;&#9;h21.392c5.042,0,9.129-4.087,9.129-9.129v-15.698c0-1.484,1.559-2.451,2.888-1.792l14.081,6.982&#10;&#9;&#9;&#9;c4.519,2.241,9.998,0.396,12.242-4.121l9.506-19.138c2.243-4.515,0.398-9.993-4.118-12.233l-6.209-3.079&#10;&#9;&#9;&#9;c-1.482-0.735-1.482-2.849,0-3.584l6.205-3.077C190.441,245.03,192.286,239.549,190.043,235.032z"/>
		
			<circle style="fill:none;stroke:#000000;stroke-width:15;stroke-linecap:round;stroke-linejoin:round;stroke-miterlimit:10;" cx="131.499" cy="252.14" r="17"/>
		<path style="fill:none;stroke:#000000;stroke-width:15;stroke-linecap:round;stroke-linejoin:round;stroke-miterlimit:10;" d="&#10;&#9;&#9;&#9;M190.043,235.032l-9.502-19.129c-2.245-4.519-7.727-6.365-12.248-4.123l-14.076,6.98c-1.329,0.659-2.888-0.308-2.888-1.792&#10;&#9;&#9;&#9;v-15.698c0-5.042-4.087-9.129-9.129-9.129h-21.392c-5.046,0-9.137,4.091-9.137,9.137v15.69c0,1.484-1.559,2.451-2.888,1.792&#10;&#9;&#9;&#9;l-14.076-6.98c-4.521-2.242-10.003-0.396-12.248,4.123l-9.502,19.129c-2.244,4.518-0.399,9.999,4.12,12.24l6.205,3.077&#10;&#9;&#9;&#9;c1.482,0.735,1.482,2.849,0,3.584l-6.205,3.077c-4.519,2.241-6.364,7.722-4.12,12.24l9.504,19.134&#10;&#9;&#9;&#9;c2.244,4.517,7.723,6.362,12.242,4.121l14.081-6.982c1.329-0.659,2.888,0.308,2.888,1.792v15.69c0,5.046,4.091,9.137,9.137,9.137&#10;&#9;&#9;&#9;h21.392c5.042,0,9.129-4.087,9.129-9.129v-15.698c0-1.484,1.559-2.451,2.888-1.792l14.081,6.982&#10;&#9;&#9;&#9;c4.519,2.241,9.998,0.396,12.242-4.121l9.506-19.138c2.243-4.515,0.398-9.993-4.118-12.233l-6.209-3.079&#10;&#9;&#9;&#9;c-1.482-0.735-1.482-2.849,0-3.584l6.205-3.077C190.441,245.03,192.286,239.549,190.043,235.032z"/>
		<path style="fill:none;stroke:#000000;stroke-width:15;stroke-linecap:round;stroke-linejoin:round;stroke-miterlimit:10;" d="&#10;&#9;&#9;&#9;M488.996,504.5H317.032c-8.563,0-15.504-6.941-15.504-15.504V370.333c0-8.563,6.941-15.504,15.504-15.504h171.964&#10;&#9;&#9;&#9;c8.563,0,15.504,6.941,15.504,15.504v118.663C504.5,497.559,497.559,504.5,488.996,504.5z"/>
		<path style="fill:none;stroke:#000000;stroke-width:15;stroke-linecap:round;stroke-linejoin:round;stroke-miterlimit:10;" d="&#10;&#9;&#9;&#9;M458.679,247.708h-87.071c-1.834,0-3.32-1.487-3.32-3.32v-53.359c0-1.834,1.487-3.32,3.32-3.32h87.071&#10;&#9;&#9;&#9;c1.834,0,3.32,1.487,3.32,3.32v53.359C461.999,246.222,460.513,247.708,458.679,247.708z"/>
		<g>
			<g>
				
					<polyline style="fill:none;stroke:#000000;stroke-width:15;stroke-linecap:round;stroke-linejoin:round;stroke-miterlimit:10;" points="&#10;&#9;&#9;&#9;&#9;&#9;361.631,405.766 330.157,431.994 361.631,458.223 &#9;&#9;&#9;&#9;"/>
				
					<polyline style="fill:none;stroke:#000000;stroke-width:15;stroke-linecap:round;stroke-linejoin:round;stroke-miterlimit:10;" points="&#10;&#9;&#9;&#9;&#9;&#9;444.396,405.766 475.87,431.994 444.396,458.223 &#9;&#9;&#9;&#9;"/>
			</g>
			
				<line style="fill:none;stroke:#000000;stroke-width:15;stroke-linecap:round;stroke-linejoin:round;stroke-miterlimit:10;" x1="385.528" y1="473.96" x2="420.499" y2="390.029"/>
		</g>
	</g>
</g>















</svg>
