<svg id="Layer_1" enable-background="new 0 0 70 70" viewBox="0 0 70 70" xmlns="http://www.w3.org/2000/svg"><g><g><g><g><path d="m43.44 40.68v.15h4.36l1.42-1.04c.2-.13.43-.21.66-.21h10.59c1.58 0 2.86-1.29 2.86-2.87v-12.5c0-1.58-1.28-2.87-2.86-2.87h-18.37c-1.58 0-2.87 1.29-2.87 2.87v12.49c0 1.58 1.29 2.87 2.87 2.87h.22c.62 0 1.12.5 1.12 1.11z" fill="#f9a41a"/><path d="m47.79 41.33h-4.36c-.28 0-.5-.22-.5-.5v-.15c0-.34-.27-.61-.61-.61h-.22c-1.86 0-3.37-1.51-3.37-3.37v-12.5c0-1.86 1.51-3.37 3.37-3.37h18.36c1.85 0 3.36 1.51 3.36 3.37v12.5c0 1.86-1.51 3.37-3.36 3.37h-10.59c-.12 0-.25.04-.39.13l-1.39 1.03c-.08.06-.19.1-.3.1zm-3.89-1h3.73l1.28-.95c.33-.21.64-.31.96-.31h10.59c1.3 0 2.36-1.06 2.36-2.37v-12.5c0-1.31-1.06-2.37-2.36-2.37h-18.36c-1.31 0-2.37 1.06-2.37 2.37v12.5c0 1.31 1.06 2.37 2.37 2.37h.22c.77 0 1.42.54 1.58 1.26z"/></g></g></g><g><g><g><path d="m42.36 53.15v5.76c0 1.27-1.03 2.3-2.3 2.3h-34.63c-1.27 0-2.3-1.03-2.3-2.3v-5.75c0-6.21 5.03-11.24 11.24-11.24h16.75c6.21 0 11.24 5.03 11.24 11.23z" fill="#8f90fb"/><path d="m40.06 61.71h-34.63c-1.54 0-2.8-1.26-2.8-2.8v-5.75c0-6.47 5.27-11.74 11.74-11.74h16.75c6.47 0 11.74 5.26 11.74 11.73v5.76c0 1.54-1.25 2.8-2.8 2.8zm-25.69-19.29c-5.92 0-10.74 4.82-10.74 10.74v5.75c0 .99.81 1.8 1.8 1.8h34.63c.99 0 1.8-.81 1.8-1.8v-5.76c0-5.92-4.82-10.73-10.74-10.73z"/></g><g><g><path d="m34.85 61.71c-.28 0-.5-.22-.5-.5v-7.17c0-.28.22-.5.5-.5s.5.22.5.5v7.17c0 .28-.22.5-.5.5z"/></g><g><path d="m10.64 61.71c-.28 0-.5-.22-.5-.5v-7.17c0-.28.22-.5.5-.5s.5.22.5.5v7.17c0 .28-.22.5-.5.5z"/></g></g></g></g><g><g><g><path d="m66.87 27.75v12.49c0 1.58-1.28 2.87-2.86 2.87h-10.59c-.24 0-.46.08-.66.21l-4 2.95c-.73.53-1.77.01-1.77-.9v-1.16c0-.61-.5-1.11-1.11-1.11h-.22c-1.58 0-2.87-1.29-2.87-2.87v-12.48c0-1.58 1.29-2.87 2.87-2.87h18.36c1.57 0 2.85 1.29 2.85 2.87z" fill="#fbe063"/><path d="m48.1 46.99c-.25 0-.5-.06-.74-.18-.54-.28-.88-.83-.88-1.43v-1.16c0-.34-.27-.61-.61-.61h-.22c-1.86 0-3.37-1.51-3.37-3.37v-12.5c0-1.86 1.51-3.37 3.37-3.37h18.36c1.85 0 3.36 1.51 3.36 3.37v12.5c0 1.86-1.51 3.37-3.36 3.37h-10.59c-.12 0-.25.04-.39.13l-3.98 2.94c-.29.21-.62.31-.95.31zm-2.45-21.61c-1.31 0-2.37 1.06-2.37 2.37v12.5c0 1.31 1.06 2.37 2.37 2.37h.22c.89 0 1.61.72 1.61 1.61v1.16c0 .23.12.43.33.54s.45.09.64-.05l4-2.95c.33-.21.64-.31.96-.31h10.59c1.3 0 2.36-1.06 2.36-2.37v-12.5c0-1.31-1.06-2.37-2.36-2.37z"/></g></g></g><g><g><path d="m61.87 30.72h-14.1c-.28 0-.5-.22-.5-.5s.22-.5.5-.5h14.1c.28 0 .5.22.5.5s-.22.5-.5.5z"/></g><g><path d="m61.87 34.86h-14.1c-.28 0-.5-.22-.5-.5s.22-.5.5-.5h14.1c.28 0 .5.22.5.5s-.22.5-.5.5z"/></g><g><path d="m61.87 39h-14.1c-.28 0-.5-.22-.5-.5s.22-.5.5-.5h14.1c.28 0 .5.22.5.5s-.22.5-.5.5z"/></g></g><g><g><path d="m27.17 39.9v3.42c0 2.45-1.99 4.43-4.42 4.43-2.45 0-4.43-1.99-4.43-4.43v-3.42c0-2.44 1.99-4.42 4.43-4.42 1.21 0 2.32.5 3.13 1.29.8.81 1.29 1.91 1.29 3.13z" fill="#ffaecd"/><path d="m22.75 48.25c-2.72 0-4.93-2.21-4.93-4.93v-3.42c0-2.71 2.21-4.92 4.93-4.92 1.3 0 2.54.51 3.48 1.44.93.94 1.44 2.18 1.44 3.48v3.42c0 2.72-2.2 4.93-4.92 4.93zm0-12.27c-2.17 0-3.93 1.76-3.93 3.92v3.42c0 2.17 1.76 3.93 3.93 3.93 2.16 0 3.92-1.76 3.92-3.93v-3.42c0-1.04-.41-2.03-1.15-2.78-.74-.73-1.73-1.14-2.77-1.14z"/></g></g><g><g><g><path d="m35.84 22.95-.95 3.89c-.51-.39-23.68-.42-24.17-.09-1.46-4.33-1-8.44 1.98-11.15 2.92-6.14 8.45-7.52 15.28-6.53l-2.89 2.14c4.26-1.34 8.49-1.33 10.45 1.46l-1.02 1.35c-.35.46-.4 1.06-.14 1.57l.79 1.55c.91 1.8 1.15 3.86.67 5.81z" fill="#495e66"/><path d="m34.89 27.34c-.07 0-.14-.02-.21-.04-1.38-.31-22.31-.38-23.77-.08-.11.04-.23.05-.35.01-.15-.05-.27-.17-.32-.31-1.61-4.77-.89-8.89 2.05-11.61 2.74-5.66 7.89-7.86 15.76-6.72.2.03.36.18.41.37s-.02.4-.19.52l-.86.64c3.93-.73 6.97.06 8.53 2.28.12.18.12.42-.01.59l-1.02 1.35c-.23.3-.27.71-.1 1.05l.79 1.55c.96 1.9 1.21 4.08.7 6.14l-.95 3.89c-.04.16-.16.3-.32.35-.03.01-.09.02-.14.02zm-13.79-1.33c5.47 0 11.4.11 13.4.31l.85-3.49c.45-1.83.23-3.76-.63-5.45l-.79-1.55c-.35-.69-.27-1.49.19-2.1l.79-1.05c-1.7-2.03-5.2-2.4-9.68-.99-.23.07-.48-.03-.6-.25-.11-.22-.05-.48.15-.63l1.88-1.4c-6.81-.71-11.12 1.35-13.53 6.41-.03.06-.07.11-.12.16-2.61 2.37-3.3 6-1.96 10.25 1.58-.15 5.67-.22 10.05-.22z"/></g><g><path d="m33.05 22.65v7.9c0 5.68-4.44 10.55-10.12 10.66-5.78.1-10.49-4.56-10.49-10.31v-8.25c0-1.3.52-2.48 1.37-3.34.41-.42 1.03-.51 1.58-.32 4.52 1.56 9.4 1.67 14.73-.03.54-.17 1.14-.07 1.54.33.86.86 1.39 2.05 1.39 3.36z" fill="#ffc6cd"/><path d="m22.75 41.72c-2.85 0-5.54-1.1-7.57-3.1-2.09-2.05-3.23-4.79-3.23-7.71v-8.25c0-1.39.54-2.7 1.51-3.69.52-.54 1.33-.71 2.1-.44 4.56 1.57 9.41 1.56 14.41-.03.75-.24 1.53-.06 2.05.45.99.99 1.54 2.31 1.54 3.71v7.9c0 6.04-4.76 11.05-10.61 11.16-.07-.01-.14 0-.2 0zm-7.92-22.32c-.26 0-.5.09-.66.26-.79.8-1.23 1.86-1.23 2.99v8.25c0 2.65 1.04 5.14 2.94 7 1.89 1.86 4.4 2.84 7.05 2.81 5.31-.1 9.63-4.66 9.63-10.16v-7.9c0-1.14-.44-2.2-1.24-3.01-.25-.25-.65-.33-1.04-.21-5.22 1.67-10.28 1.68-15.05.04-.13-.05-.27-.07-.4-.07z"/></g><g><path d="m36.08 29.25c0 1.68-1.35 3.03-3.03 3.03v-6.06c.69 0 1.33.23 1.83.62.11.08.21.17.3.27.56.54.9 1.3.9 2.14z" fill="#ffaecd"/><path d="m33.05 32.78c-.28 0-.5-.22-.5-.5v-6.06c0-.28.22-.5.5-.5.78 0 1.52.25 2.14.73.12.09.24.2.35.31.67.66 1.04 1.55 1.04 2.49 0 1.94-1.58 3.53-3.53 3.53zm.5-6.01v4.96c1.15-.23 2.03-1.25 2.03-2.48 0-.68-.26-1.31-.74-1.78-.08-.08-.16-.15-.25-.22-.31-.25-.66-.41-1.04-.48z"/></g><g><path d="m12.44 26.22v6.06c-1.67 0-3.03-1.35-3.03-3.03 0-.84.34-1.59.89-2.14.13-.13.27-.25.42-.35.49-.34 1.08-.54 1.72-.54z" fill="#ffaecd"/><path d="m12.44 32.78c-1.94 0-3.53-1.58-3.53-3.53 0-.95.37-1.83 1.04-2.5.15-.15.31-.29.49-.41.59-.41 1.29-.62 2-.62.28 0 .5.22.5.5v6.06c0 .27-.22.5-.5.5zm-.5-6.01c-.33.07-.65.2-.94.4-.13.09-.24.19-.35.29-.48.47-.74 1.11-.74 1.78 0 1.23.87 2.25 2.03 2.48z"/></g></g><g><g><path d="m19.61 28.37h-2.51c-.28 0-.5-.22-.5-.5s.22-.5.5-.5h2.51c.28 0 .5.22.5.5s-.23.5-.5.5z"/></g></g><g><g><path d="m28.43 28.37h-2.51c-.28 0-.5-.22-.5-.5s.22-.5.5-.5h2.51c.28 0 .5.22.5.5s-.22.5-.5.5z"/></g></g><g><path d="m22.75 38.59c-.98 0-1.95-.35-2.92-1.06-.22-.16-.27-.47-.11-.7.16-.22.47-.27.7-.11 1.57 1.14 3.1 1.14 4.67 0 .22-.16.54-.11.7.11s.11.54-.11.7c-.98.71-1.96 1.06-2.93 1.06z"/></g><g><path d="m22.75 33.99c-.28 0-.5-.22-.5-.5v-1.63c0-.28.22-.5.5-.5s.5.22.5.5v1.63c0 .28-.23.5-.5.5z"/></g></g><g><g><path d="m33.65 36.9h-4.82c-.28 0-.5-.22-.5-.5s.22-.5.5-.5h4.82c1.06 0 1.93-.86 1.93-1.93v-5.04c0-.28.22-.5.5-.5s.5.22.5.5v5.04c0 1.62-1.31 2.93-2.93 2.93z"/></g><g><path d="m28.84 36.4c0 .92-.75 1.66-1.67 1.66s-1.65-.74-1.65-1.66.74-1.66 1.65-1.66c.92 0 1.67.74 1.67 1.66z" fill="#fbe063"/><path d="m27.17 38.56c-1.19 0-2.15-.97-2.15-2.16s.97-2.16 2.15-2.16c1.2 0 2.17.97 2.17 2.16s-.98 2.16-2.17 2.16zm0-3.32c-.64 0-1.15.52-1.15 1.16s.52 1.16 1.15 1.16c.64 0 1.17-.52 1.17-1.16s-.53-1.16-1.17-1.16z"/></g></g></g></svg>