<svg id="Layer_1" height="512" viewBox="0 0 256 256" width="512" xmlns="http://www.w3.org/2000/svg"><g><g><path d="m188.888 252h-165.372c-5.622 0-10.18-4.558-10.18-10.18v-203.845c0-5.622 4.558-10.18 10.18-10.18h165.372c5.622 0 10.18 4.558 10.18 10.18v203.845c0 5.622-4.557 10.18-10.18 10.18z" fill="#526faa"/></g><g><path d="m188.888 27.795h-8c5.622 0 10.18 4.558 10.18 10.18v203.845c0 5.622-4.558 10.18-10.18 10.18h8c5.622 0 10.18-4.558 10.18-10.18v-203.845c0-5.622-4.557-10.18-10.18-10.18z" fill="#34518c"/></g><g><path d="m23.516 252h8c-5.622 0-10.18-4.558-10.18-10.18v-203.845c0-5.622 4.558-10.18 10.18-10.18h-8c-5.622 0-10.18 4.558-10.18 10.18v203.845c0 5.622 4.558 10.18 10.18 10.18z" fill="#708dc8"/></g><g><path d="m179.598 239.919h-146.791c-2.761 0-5-2.239-5-5v-190.043c0-2.761 2.239-5 5-5h146.79c2.761 0 5 2.239 5 5v190.043c.001 2.761-2.238 5-4.999 5z" fill="#f4efed"/></g><g><path d="m188.889 254h-165.372c-6.717 0-12.181-5.464-12.181-12.18v-203.845c0-6.716 5.464-12.18 12.181-12.18h165.372c6.716 0 12.18 5.464 12.18 12.18v203.845c-.001 6.716-5.464 12.18-12.18 12.18zm-165.372-224.205c-4.511 0-8.181 3.67-8.181 8.18v203.845c0 4.511 3.67 8.18 8.181 8.18h165.372c4.511 0 8.18-3.669 8.18-8.18v-203.845c0-4.511-3.669-8.18-8.18-8.18z" fill="#690589"/></g><g><path d="m179.598 241.919h-146.79c-3.859 0-7-3.14-7-7v-190.042c0-3.86 3.141-7 7-7h146.79c3.859 0 7 3.14 7 7v190.042c0 3.86-3.141 7-7 7zm-146.79-200.042c-1.654 0-3 1.346-3 3v190.042c0 1.654 1.346 3 3 3h146.79c1.654 0 3-1.346 3-3v-190.042c0-1.654-1.346-3-3-3z" fill="#690589"/></g><g><path d="m117.777 20.685v-5.111c0-6.392-5.182-11.574-11.575-11.574-6.392 0-11.574 5.182-11.574 11.574v5.111h-16.651c-2.842 0-5.145 2.303-5.145 5.145v15.912c0 2.842 2.304 5.145 5.145 5.145h56.451c2.842 0 5.145-2.303 5.145-5.145v-15.911c0-2.842-2.303-5.145-5.145-5.145h-16.651z" fill="#fcc24c"/></g><g><path d="m134.428 48.888h-56.451c-3.939 0-7.145-3.206-7.145-7.146v-15.911c0-3.94 3.205-7.145 7.145-7.145h14.651v-3.111c0-7.486 6.09-13.575 13.574-13.575s13.574 6.089 13.574 13.574v3.111h14.651c3.94 0 7.145 3.205 7.145 7.145v15.912c.001 3.941-3.204 7.146-7.144 7.146zm-56.451-26.202c-1.734 0-3.145 1.411-3.145 3.145v15.912c0 1.734 1.41 3.146 3.145 3.146h56.451c1.734 0 3.145-1.411 3.145-3.146v-15.912c0-1.734-1.411-3.145-3.145-3.145h-16.651c-1.104 0-2-.896-2-2v-5.111c0-5.279-4.295-9.574-9.574-9.574s-9.574 4.295-9.574 9.574v5.111c0 1.104-.896 2-2 2z" fill="#690589"/></g><g><path d="m42.838 63.227h25.472v25.472h-25.472z" fill="#fcc24c"/></g><g><path d="m68.31 90.699h-25.472c-1.104 0-2-.896-2-2v-25.472c0-1.104.896-2 2-2h25.472c1.105 0 2 .896 2 2v25.473c0 1.104-.895 1.999-2 1.999zm-23.472-4h21.472v-21.472h-21.472z" fill="#690589"/></g><g><path d="m54.673 82.768c-.45 0-.901-.151-1.274-.459l-5.985-4.955c-.851-.704-.97-1.965-.266-2.816.705-.851 1.966-.97 2.816-.265l4.488 3.715 7.146-8.148c.729-.829 1.992-.913 2.823-.185.83.729.912 1.992.185 2.822l-8.429 9.609c-.395.451-.948.682-1.504.682z" fill="#690589"/></g><g><path d="m169.566 77.963h-86.613c-1.105 0-2-.896-2-2s.895-2 2-2h86.613c1.104 0 2 .896 2 2s-.895 2-2 2z" fill="#690589"/></g><g><path d="m42.838 106.594h25.472v25.472h-25.472z" fill="#fcc24c"/></g><g><path d="m68.31 134.066h-25.472c-1.104 0-2-.895-2-2v-25.473c0-1.104.896-2 2-2h25.472c1.105 0 2 .896 2 2v25.473c0 1.104-.895 2-2 2zm-23.472-4h21.472v-21.473h-21.472z" fill="#690589"/></g><g><path d="m54.673 126.134c-.45 0-.901-.151-1.274-.459l-5.985-4.955c-.851-.704-.97-1.965-.266-2.816.705-.851 1.966-.97 2.816-.265l4.488 3.715 7.146-8.148c.729-.83 1.992-.913 2.823-.185.83.729.912 1.992.185 2.822l-8.429 9.609c-.395.451-.948.682-1.504.682z" fill="#690589"/></g><g><path d="m169.566 121.33h-86.613c-1.105 0-2-.896-2-2s.895-2 2-2h86.613c1.104 0 2 .896 2 2s-.895 2-2 2z" fill="#690589"/></g><g><path d="m42.838 149.96h25.472v25.472h-25.472z" fill="#f4efed"/></g><g><path d="m68.31 177.433h-25.472c-1.104 0-2-.896-2-2v-25.473c0-1.104.896-2 2-2h25.472c1.105 0 2 .896 2 2v25.472c0 1.105-.895 2.001-2 2.001zm-23.472-4h21.472v-21.473h-21.472z" fill="#690589"/></g><g><path d="m169.566 164.697h-86.613c-1.105 0-2-.895-2-2 0-1.104.895-2 2-2h86.613c1.104 0 2 .896 2 2s-.895 2-2 2z" fill="#690589"/></g><g><path d="m42.838 193.327h25.472v25.472h-25.472z" fill="#f4efed"/></g><g><path d="m68.31 220.799h-25.472c-1.104 0-2-.896-2-2v-25.472c0-1.104.896-2 2-2h25.472c1.105 0 2 .896 2 2v25.472c0 1.105-.895 2-2 2zm-23.472-4h21.472v-21.472h-21.472z" fill="#690589"/></g><g><path d="m169.566 208.064h-86.613c-1.105 0-2-.896-2-2 0-1.105.895-2 2-2h86.613c1.104 0 2 .895 2 2 0 1.104-.895 2-2 2z" fill="#690589"/></g><g><path d="m21.336 100.078c-1.104 0-2-.896-2-2v-12c0-1.104.896-2 2-2s2 .896 2 2v12c0 1.104-.896 2-2 2z" fill="#690589"/></g><g><circle cx="199.068" cy="198.804" fill="#ff4397" r="53.196"/></g><g><path d="m199.068 145.608c-1.007 0-2.007.034-3 .089 27.983 1.557 50.196 24.735 50.196 53.107s-22.213 51.551-50.196 53.107c.993.055 1.993.089 3 .089 29.379 0 53.196-23.817 53.196-53.196s-23.816-53.196-53.196-53.196z" fill="#e12579"/></g><g><path d="m199.068 252c1.007 0 2.007-.034 3-.089-27.983-1.557-50.196-24.735-50.196-53.107s22.213-51.551 50.196-53.107c-.993-.055-1.993-.089-3-.089-29.379 0-53.196 23.817-53.196 53.196s23.817 53.196 53.196 53.196z" fill="#ff61b5"/></g><g><ellipse cx="199.068" cy="198.804" fill="#f4efed" rx="42.005" ry="42.005" transform="matrix(.707 -.707 .707 .707 -82.27 198.991)"/></g><g><path d="m199.068 242.809c-24.265 0-44.005-19.741-44.005-44.005s19.74-44.005 44.005-44.005 44.005 19.741 44.005 44.005-19.74 44.005-44.005 44.005zm0-84.01c-22.059 0-40.005 17.946-40.005 40.005s17.946 40.005 40.005 40.005 40.005-17.946 40.005-40.005-17.946-40.005-40.005-40.005z" fill="#690589"/></g><g><path d="m199.068 254c-30.436 0-55.196-24.761-55.196-55.196s24.761-55.196 55.196-55.196c30.436 0 55.196 24.761 55.196 55.196.001 30.435-24.76 55.196-55.196 55.196zm0-106.392c-28.23 0-51.196 22.966-51.196 51.196s22.967 51.196 51.196 51.196 51.196-22.967 51.196-51.196-22.966-51.196-51.196-51.196z" fill="#690589"/></g><g><path d="m199.068 242.809c-1.105 0-2-.896-2-2v-5.256c0-1.104.895-2 2-2 1.104 0 2 .896 2 2v5.256c0 1.105-.895 2-2 2z" fill="#690589"/></g><g><path d="m199.068 164.055c-1.105 0-2-.896-2-2v-5.256c0-1.104.895-2 2-2 1.104 0 2 .896 2 2v5.256c0 1.105-.895 2-2 2z" fill="#690589"/></g><g><path d="m217.808 169.194c-.347 0-.698-.09-1.018-.28-.95-.563-1.264-1.79-.701-2.74l2.681-4.521c.564-.95 1.792-1.264 2.74-.7.95.563 1.264 1.79.701 2.74l-2.681 4.521c-.374.629-1.04.98-1.722.98z" fill="#690589"/></g><g><path d="m177.645 236.937c-.347 0-.698-.09-1.018-.28-.95-.563-1.264-1.79-.701-2.74l2.681-4.521c.564-.95 1.792-1.264 2.74-.7.95.563 1.264 1.79.701 2.74l-2.681 4.521c-.374.629-1.04.98-1.722.98z" fill="#690589"/></g><g><path d="m231.239 183.038c-.705 0-1.388-.373-1.753-1.034-.534-.967-.183-2.184.784-2.718l4.602-2.541c.966-.533 2.183-.183 2.718.784.534.967.183 2.184-.784 2.718l-4.602 2.541c-.306.17-.638.25-.965.25z" fill="#690589"/></g><g><path d="m162.3 221.112c-.705 0-1.388-.373-1.753-1.034-.534-.967-.183-2.184.784-2.718l4.602-2.541c.967-.533 2.183-.183 2.718.784.534.967.183 2.184-.784 2.718l-4.602 2.541c-.307.169-.638.25-.965.25z" fill="#690589"/></g><g><path d="m180.329 169.194c-.684 0-1.349-.35-1.723-.98l-2.681-4.521c-.563-.95-.249-2.177.701-2.74.949-.564 2.177-.25 2.74.7l2.681 4.521c.563.95.249 2.177-.701 2.74-.319.19-.67.28-1.017.28z" fill="#690589"/></g><g><path d="m220.492 236.937c-.684 0-1.349-.35-1.723-.98l-2.681-4.521c-.563-.95-.249-2.177.701-2.74.949-.564 2.177-.25 2.74.7l2.681 4.521c.563.95.249 2.177-.701 2.74-.319.189-.67.28-1.017.28z" fill="#690589"/></g><g><path d="m166.898 183.038c-.327 0-.658-.081-.965-.249l-4.602-2.541c-.967-.534-1.318-1.751-.784-2.718.535-.967 1.75-1.317 2.718-.784l4.602 2.541c.967.534 1.318 1.751.784 2.718-.366.66-1.049 1.033-1.753 1.033z" fill="#690589"/></g><g><path d="m235.837 221.112c-.327 0-.658-.081-.965-.249l-4.602-2.541c-.967-.534-1.318-1.751-.784-2.718s1.751-1.317 2.718-.784l4.602 2.541c.967.534 1.318 1.751.784 2.718-.365.66-1.048 1.033-1.753 1.033z" fill="#690589"/></g><g><path d="m241.073 200.804h-5.256c-1.104 0-2-.895-2-2 0-1.104.896-2 2-2h5.256c1.105 0 2 .896 2 2s-.895 2-2 2z" fill="#690589"/></g><g><path d="m162.319 200.804h-5.256c-1.105 0-2-.895-2-2 0-1.104.895-2 2-2h5.256c1.104 0 2 .896 2 2s-.895 2-2 2z" fill="#690589"/></g><g><path d="m209.989 217.14c-.646 0-1.279-.312-1.665-.889l-10.919-16.336c-.22-.329-.337-.716-.337-1.111v-28.487c0-1.105.895-2 2-2 1.104 0 2 .895 2 2v27.88l10.582 15.832c.613.918.366 2.16-.552 2.774-.341.228-.727.337-1.109.337z" fill="#690589"/></g><g><circle cx="199.068" cy="198.804" fill="#526faa" r="6.79"/></g><g><path d="m199.068 207.594c-4.847 0-8.79-3.943-8.79-8.79s3.943-8.789 8.79-8.789 8.79 3.943 8.79 8.789-3.943 8.79-8.79 8.79zm0-13.58c-2.642 0-4.79 2.148-4.79 4.789s2.148 4.79 4.79 4.79 4.79-2.149 4.79-4.79-2.148-4.789-4.79-4.789z" fill="#690589"/></g></g></svg>