<svg width="174" height="129" viewBox="0 0 174 129" fill="none" xmlns="http://www.w3.org/2000/svg">
<path d="M40.6016 0C18.1778 0 0 18.1829 0 40.6145C0 63.0383 18.1778 81.2212 40.6016 81.2212C40.6016 81.2212 40.4052 96.3074 28.1491 118.021C26.7877 122.371 29.2145 127.004 33.5679 128.358C36.6567 129.33 39.907 128.385 42.0058 126.187C70.1872 95.363 81.2185 59.0856 81.2185 40.6145C81.2185 18.1829 63.041 0 40.6016 0Z" fill="#F3F3F3"/>
<path d="M133.383 0C110.959 0 92.7812 18.1832 92.7812 40.6145C92.7812 63.0383 110.959 81.2212 133.383 81.2212C133.383 81.2212 133.186 96.3074 120.93 118.021C119.569 122.371 121.996 127.004 126.349 128.358C129.438 129.33 132.688 128.385 134.787 126.187C162.968 95.363 174 59.0856 174 40.6145C174 18.1829 155.822 0 133.383 0Z" fill="#F3F3F3"/>
</svg>
