<svg width="68" height="51" viewBox="0 0 68 51" fill="none" xmlns="http://www.w3.org/2000/svg">
<path d="M52.1326 0C60.896 0 68 7.106 68 15.8724C68 24.6358 60.896 31.7418 52.1326 31.7418C52.1326 31.7418 52.2094 37.6376 56.9991 46.1233C57.5312 47.8235 56.5828 49.6342 54.8814 50.1632C53.6743 50.5429 52.4041 50.1738 51.5838 49.3146C40.5704 37.2685 36.2593 23.0911 36.2593 15.8724C36.2593 7.106 43.3631 0 52.1326 0Z" fill="#F3F3F3"/>
<path d="M15.8738 0C24.6372 0 31.7412 7.10614 31.7412 15.8724C31.7412 24.6358 24.6372 31.7418 15.8738 31.7418C15.8738 31.7418 15.9506 37.6376 20.7404 46.1233C21.2724 47.8235 20.3239 49.6342 18.6227 50.1632C17.4155 50.5429 16.1453 50.1738 15.3252 49.3146C4.31158 37.2685 0.000352859 23.0911 0.000352859 15.8724C0.000352859 7.106 7.10436 0 15.8738 0Z" fill="#F3F3F3"/>
</svg>
